<?xml version="1.0" encoding="UTF-8"?>
<svg xmlns="http://www.w3.org/2000/svg" xmlns:xlink="http://www.w3.org/1999/xlink" width="53.56pt" height="27.41pt" viewBox="0 0 53.56 27.41" version="1.1">
<defs>
<clipPath id="clip1">
  <path d="M 0 0 L 53.558594 0 L 53.558594 27.410156 L 0 27.410156 Z M 0 0 "/>
</clipPath>
</defs>
<g id="surface1">
<g clip-path="url(#clip1)" clip-rule="nonzero">
<path style=" stroke:none;fill-rule:evenodd;fill:rgb(0%,41.19873%,65.098572%);fill-opacity:1;" d="M 0 -0.00390625 L 53.5625 -0.00390625 L 53.5625 27.410156 L 0 27.410156 L 0 -0.00390625 "/>
</g>
<path style=" stroke:none;fill-rule:nonzero;fill:rgb(100%,100%,100%);fill-opacity:1;" d="M 47.71875 13.597656 C 46.617188 13.78125 45.96875 13.945313 45.777344 14.085938 C 45.585938 14.226563 45.488281 14.394531 45.488281 14.585938 C 45.488281 14.785156 45.558594 14.941406 45.695313 15.058594 C 45.835938 15.175781 46.011719 15.230469 46.226563 15.230469 C 46.527344 15.230469 46.824219 15.109375 47.121094 14.863281 C 47.417969 14.621094 47.617188 14.195313 47.71875 13.597656 Z M 43.839844 11.863281 C 43.984375 11.269531 44.3125 10.816406 44.828125 10.492188 C 45.34375 10.171875 46.144531 10.011719 47.222656 10.011719 C 48.453125 10.011719 49.28125 10.164063 49.710938 10.472656 C 50.140625 10.78125 50.351563 11.226563 50.351563 11.816406 C 50.351563 12.207031 50.246094 12.851563 50.03125 13.75 C 49.832031 14.601563 49.730469 15.191406 49.730469 15.523438 C 49.730469 15.808594 49.78125 16.097656 49.882813 16.390625 L 47.546875 16.390625 C 47.492188 16.144531 47.464844 15.90625 47.464844 15.675781 C 46.839844 16.25 46.140625 16.535156 45.367188 16.535156 C 44.578125 16.535156 44.015625 16.351563 43.667969 15.984375 C 43.324219 15.617188 43.152344 15.1875 43.152344 14.703125 C 43.152344 14.148438 43.300781 13.730469 43.613281 13.4375 C 43.917969 13.148438 44.296875 12.953125 44.75 12.847656 C 45.199219 12.742188 45.816406 12.652344 46.597656 12.574219 C 47.289063 12.5 47.753906 12.425781 47.984375 12.355469 C 48.03125 12.171875 48.054688 12.03125 48.054688 11.933594 C 48.054688 11.777344 47.976563 11.652344 47.816406 11.558594 C 47.65625 11.464844 47.445313 11.414063 47.183594 11.414063 C 46.910156 11.414063 46.6875 11.460938 46.515625 11.546875 C 46.34375 11.636719 46.195313 11.824219 46.066406 12.101563 Z M 42.710938 10.152344 L 41.367188 16.390625 L 38.964844 16.390625 L 40.296875 10.152344 Z M 43.203125 7.769531 L 42.859375 9.414063 L 40.46875 9.414063 L 40.804688 7.769531 Z M 39.601563 10.199219 L 38.722656 12.046875 C 38.539063 12 38.371094 11.980469 38.226563 11.980469 C 37.769531 11.980469 37.398438 12.144531 37.109375 12.476563 C 36.828125 12.804688 36.601563 13.332031 36.445313 14.054688 L 35.953125 16.390625 L 33.554688 16.390625 L 34.882813 10.152344 L 37.121094 10.152344 L 36.84375 11.378906 L 36.871094 11.40625 C 37.242188 10.851563 37.570313 10.480469 37.851563 10.292969 C 38.136719 10.105469 38.445313 10.011719 38.78125 10.011719 C 39.035156 10.011719 39.308594 10.074219 39.601563 10.199219 Z M 30.332031 13.597656 C 29.230469 13.78125 28.582031 13.945313 28.390625 14.085938 C 28.199219 14.226563 28.101563 14.394531 28.101563 14.585938 C 28.101563 14.785156 28.171875 14.941406 28.308594 15.058594 C 28.445313 15.175781 28.621094 15.230469 28.839844 15.230469 C 29.140625 15.230469 29.4375 15.109375 29.734375 14.863281 C 30.03125 14.621094 30.226563 14.195313 30.332031 13.597656 Z M 26.453125 11.863281 C 26.597656 11.269531 26.925781 10.816406 27.441406 10.492188 C 27.957031 10.171875 28.757813 10.011719 29.839844 10.011719 C 31.0625 10.011719 31.894531 10.164063 32.324219 10.472656 C 32.753906 10.78125 32.96875 11.226563 32.96875 11.816406 C 32.96875 12.207031 32.859375 12.851563 32.644531 13.75 C 32.441406 14.601563 32.34375 15.191406 32.34375 15.523438 C 32.34375 15.808594 32.394531 16.097656 32.496094 16.390625 L 30.160156 16.390625 C 30.105469 16.144531 30.078125 15.90625 30.078125 15.675781 C 29.453125 16.25 28.753906 16.535156 27.980469 16.535156 C 27.191406 16.535156 26.625 16.351563 26.28125 15.984375 C 25.9375 15.617188 25.761719 15.1875 25.761719 14.703125 C 25.761719 14.148438 25.914063 13.730469 26.226563 13.4375 C 26.53125 13.148438 26.910156 12.953125 27.363281 12.847656 C 27.8125 12.742188 28.429688 12.652344 29.210938 12.574219 C 29.902344 12.5 30.363281 12.425781 30.597656 12.355469 C 30.644531 12.171875 30.667969 12.03125 30.667969 11.933594 C 30.667969 11.777344 30.589844 11.652344 30.429688 11.558594 C 30.269531 11.464844 30.058594 11.414063 29.796875 11.414063 C 29.523438 11.414063 29.300781 11.460938 29.128906 11.546875 C 28.957031 11.636719 28.808594 11.824219 28.679688 12.101563 Z M 25.320313 10.152344 L 23.980469 16.390625 C 23.855469 16.96875 23.714844 17.433594 23.5625 17.773438 C 23.410156 18.117188 23.167969 18.394531 22.835938 18.605469 C 22.507813 18.816406 22.042969 18.917969 21.453125 18.917969 C 20.949219 18.917969 20.394531 18.84375 19.78125 18.691406 L 20.117188 17.003906 C 20.34375 17.042969 20.542969 17.066406 20.730469 17.066406 C 20.996094 17.066406 21.195313 17.003906 21.324219 16.882813 C 21.457031 16.757813 21.585938 16.40625 21.707031 15.824219 L 22.910156 10.152344 Z M 25.816406 7.769531 L 25.472656 9.414063 L 23.082031 9.414063 L 23.417969 7.769531 Z M 18.289063 13.597656 C 17.1875 13.78125 16.539063 13.945313 16.347656 14.085938 C 16.15625 14.226563 16.0625 14.394531 16.0625 14.585938 C 16.0625 14.785156 16.128906 14.941406 16.265625 15.058594 C 16.40625 15.175781 16.582031 15.230469 16.796875 15.230469 C 17.097656 15.230469 17.394531 15.109375 17.691406 14.863281 C 17.988281 14.621094 18.1875 14.195313 18.289063 13.597656 Z M 14.410156 11.863281 C 14.554688 11.269531 14.882813 10.816406 15.398438 10.492188 C 15.914063 10.171875 16.714844 10.011719 17.796875 10.011719 C 19.023438 10.011719 19.851563 10.164063 20.28125 10.472656 C 20.710938 10.78125 20.925781 11.226563 20.925781 11.816406 C 20.925781 12.207031 20.816406 12.851563 20.601563 13.75 C 20.402344 14.601563 20.300781 15.191406 20.300781 15.523438 C 20.300781 15.808594 20.351563 16.097656 20.453125 16.390625 L 18.117188 16.390625 C 18.066406 16.144531 18.035156 15.90625 18.035156 15.675781 C 17.410156 16.25 16.710938 16.535156 15.9375 16.535156 C 15.148438 16.535156 14.585938 16.351563 14.238281 15.984375 C 13.894531 15.617188 13.722656 15.1875 13.722656 14.703125 C 13.722656 14.148438 13.875 13.730469 14.183594 13.4375 C 14.488281 13.148438 14.867188 12.953125 15.320313 12.847656 C 15.769531 12.742188 16.386719 12.652344 17.167969 12.574219 C 17.859375 12.5 18.324219 12.425781 18.554688 12.355469 C 18.601563 12.171875 18.625 12.03125 18.625 11.933594 C 18.625 11.777344 18.546875 11.652344 18.386719 11.558594 C 18.226563 11.464844 18.015625 11.414063 17.753906 11.414063 C 17.480469 11.414063 17.257813 11.460938 17.085938 11.546875 C 16.914063 11.636719 16.765625 11.824219 16.636719 12.101563 Z M 14.296875 7.769531 L 10.5625 11.019531 L 13.203125 16.390625 L 10.324219 16.390625 L 8.699219 12.65625 L 6.820313 14.273438 L 6.375 16.390625 L 3.691406 16.390625 L 5.53125 7.769531 L 8.21875 7.769531 L 7.515625 10.992188 L 7.542969 11.019531 L 10.792969 7.769531 L 14.296875 7.769531 "/>
<path style=" stroke:none;fill-rule:nonzero;fill:rgb(100%,100%,100%);fill-opacity:1;" d="M 49.476563 18.375 L 49.21875 18.375 L 49.21875 19.4375 L 49.480469 19.4375 C 49.585938 19.4375 49.664063 19.429688 49.71875 19.414063 C 49.777344 19.402344 49.824219 19.382813 49.859375 19.363281 C 49.898438 19.339844 49.933594 19.3125 49.964844 19.28125 C 50.066406 19.179688 50.117188 19.050781 50.117188 18.894531 C 50.117188 18.742188 50.066406 18.617188 49.960938 18.519531 C 49.921875 18.484375 49.878906 18.453125 49.832031 18.433594 C 49.78125 18.40625 49.734375 18.394531 49.691406 18.386719 C 49.644531 18.378906 49.574219 18.375 49.476563 18.375 Z M 49.015625 19.617188 L 49.015625 18.191406 L 49.496094 18.191406 C 49.691406 18.191406 49.84375 18.222656 49.957031 18.28125 C 50.070313 18.339844 50.160156 18.421875 50.226563 18.535156 C 50.292969 18.648438 50.328125 18.773438 50.328125 18.90625 C 50.328125 19.003906 50.308594 19.09375 50.273438 19.179688 C 50.234375 19.269531 50.183594 19.34375 50.113281 19.410156 C 50.046875 19.480469 49.964844 19.53125 49.875 19.566406 C 49.820313 19.585938 49.769531 19.601563 49.726563 19.605469 C 49.679688 19.613281 49.59375 19.617188 49.46875 19.617188 Z M 47.988281 18.191406 L 48.191406 18.191406 L 48.191406 19.433594 L 48.835938 19.433594 L 48.835938 19.621094 L 47.988281 19.621094 Z M 46.996094 18.367188 L 46.933594 18.367188 L 46.933594 18.816406 L 47.011719 18.816406 C 47.117188 18.816406 47.1875 18.808594 47.226563 18.789063 C 47.265625 18.773438 47.292969 18.746094 47.316406 18.710938 C 47.335938 18.675781 47.347656 18.632813 47.347656 18.589844 C 47.347656 18.542969 47.335938 18.503906 47.3125 18.464844 C 47.285156 18.429688 47.253906 18.402344 47.210938 18.386719 C 47.167969 18.375 47.097656 18.367188 46.996094 18.367188 Z M 46.730469 19.621094 L 46.730469 18.191406 L 47.089844 18.191406 C 47.230469 18.191406 47.347656 18.226563 47.429688 18.300781 C 47.515625 18.371094 47.558594 18.46875 47.558594 18.589844 C 47.558594 18.671875 47.539063 18.746094 47.496094 18.804688 C 47.457031 18.867188 47.394531 18.910156 47.316406 18.941406 C 47.363281 18.972656 47.40625 19.011719 47.453125 19.0625 C 47.496094 19.117188 47.554688 19.207031 47.636719 19.335938 C 47.683594 19.414063 47.726563 19.476563 47.753906 19.519531 L 47.832031 19.621094 L 47.589844 19.621094 L 47.527344 19.527344 C 47.523438 19.523438 47.519531 19.515625 47.515625 19.507813 L 47.472656 19.453125 L 47.410156 19.347656 L 47.34375 19.238281 C 47.296875 19.179688 47.261719 19.132813 47.226563 19.097656 C 47.191406 19.0625 47.15625 19.039063 47.128906 19.023438 C 47.101563 19.007813 47.054688 19 46.988281 19 L 46.933594 19 L 46.933594 19.621094 Z M 45.710938 18.367188 C 45.546875 18.367188 45.410156 18.417969 45.308594 18.519531 C 45.203125 18.621094 45.148438 18.753906 45.148438 18.910156 C 45.148438 19.066406 45.203125 19.191406 45.308594 19.292969 C 45.414063 19.398438 45.546875 19.449219 45.703125 19.449219 C 45.863281 19.449219 45.996094 19.394531 46.101563 19.292969 C 46.210938 19.1875 46.261719 19.058594 46.261719 18.902344 C 46.261719 18.75 46.210938 18.625 46.101563 18.519531 C 45.996094 18.417969 45.863281 18.367188 45.710938 18.367188 Z M 45.703125 18.171875 C 45.921875 18.171875 46.105469 18.242188 46.253906 18.382813 C 46.402344 18.519531 46.472656 18.695313 46.472656 18.90625 C 46.472656 19.117188 46.398438 19.292969 46.253906 19.429688 C 46.101563 19.566406 45.914063 19.636719 45.691406 19.636719 C 45.476563 19.636719 45.296875 19.566406 45.152344 19.429688 C 45.011719 19.292969 44.9375 19.117188 44.9375 18.910156 C 44.9375 18.699219 45.011719 18.519531 45.15625 18.382813 C 45.296875 18.242188 45.480469 18.171875 45.703125 18.171875 Z M 44.722656 18.191406 L 44.925781 18.191406 L 44.347656 19.625 L 44.304688 19.625 L 43.835938 18.464844 L 43.363281 19.625 L 43.320313 19.625 L 42.746094 18.191406 L 42.953125 18.191406 L 43.34375 19.175781 L 43.742188 18.191406 L 43.933594 18.191406 L 44.332031 19.175781 Z M 41.59375 18.367188 L 41.53125 18.367188 L 41.53125 18.816406 L 41.605469 18.816406 C 41.710938 18.816406 41.78125 18.808594 41.820313 18.789063 C 41.859375 18.773438 41.890625 18.746094 41.910156 18.710938 C 41.933594 18.675781 41.945313 18.632813 41.945313 18.589844 C 41.945313 18.542969 41.929688 18.503906 41.90625 18.464844 C 41.882813 18.429688 41.851563 18.402344 41.804688 18.386719 C 41.765625 18.375 41.691406 18.367188 41.59375 18.367188 Z M 41.328125 19.621094 L 41.328125 18.191406 L 41.683594 18.191406 C 41.828125 18.191406 41.941406 18.226563 42.027344 18.300781 C 42.113281 18.371094 42.15625 18.46875 42.15625 18.589844 C 42.15625 18.671875 42.132813 18.746094 42.09375 18.804688 C 42.050781 18.867188 41.992188 18.910156 41.914063 18.941406 C 41.960938 18.972656 42.003906 19.011719 42.046875 19.0625 C 42.089844 19.117188 42.152344 19.207031 42.230469 19.335938 C 42.28125 19.414063 42.320313 19.476563 42.351563 19.519531 L 42.425781 19.621094 L 42.183594 19.621094 L 42.121094 19.527344 C 42.117188 19.523438 42.113281 19.515625 42.109375 19.507813 L 42.070313 19.453125 L 42.007813 19.347656 L 41.9375 19.238281 C 41.894531 19.179688 41.855469 19.132813 41.820313 19.097656 C 41.785156 19.0625 41.753906 19.039063 41.726563 19.023438 C 41.699219 19.007813 41.652344 19 41.585938 19 L 41.53125 19 L 41.53125 19.621094 Z M 40.832031 18.191406 L 41.035156 18.191406 L 41.035156 19.003906 C 41.035156 19.113281 41.027344 19.195313 41.011719 19.25 C 40.996094 19.308594 40.976563 19.355469 40.953125 19.390625 C 40.929688 19.429688 40.902344 19.460938 40.867188 19.492188 C 40.753906 19.585938 40.605469 19.636719 40.421875 19.636719 C 40.238281 19.636719 40.089844 19.589844 39.976563 19.492188 C 39.941406 19.460938 39.914063 19.429688 39.890625 19.390625 C 39.867188 19.355469 39.847656 19.308594 39.832031 19.253906 C 39.816406 19.199219 39.808594 19.117188 39.808594 19 L 39.808594 18.191406 L 40.015625 18.191406 L 40.015625 19.003906 C 40.015625 19.136719 40.03125 19.230469 40.058594 19.28125 C 40.089844 19.335938 40.136719 19.378906 40.199219 19.410156 C 40.261719 19.441406 40.335938 19.457031 40.421875 19.457031 C 40.542969 19.457031 40.640625 19.425781 40.71875 19.363281 C 40.757813 19.328125 40.785156 19.289063 40.804688 19.242188 C 40.824219 19.195313 40.832031 19.117188 40.832031 19.003906 Z M 38.824219 18.367188 C 38.660156 18.367188 38.527344 18.417969 38.421875 18.519531 C 38.316406 18.621094 38.265625 18.753906 38.265625 18.910156 C 38.265625 19.066406 38.316406 19.191406 38.421875 19.292969 C 38.527344 19.398438 38.660156 19.449219 38.820313 19.449219 C 38.976563 19.449219 39.109375 19.394531 39.21875 19.292969 C 39.324219 19.1875 39.378906 19.058594 39.378906 18.902344 C 39.378906 18.75 39.324219 18.625 39.21875 18.519531 C 39.109375 18.417969 38.980469 18.367188 38.824219 18.367188 Z M 38.816406 18.171875 C 39.035156 18.171875 39.21875 18.242188 39.367188 18.382813 C 39.515625 18.519531 39.589844 18.695313 39.589844 18.90625 C 39.589844 19.117188 39.515625 19.292969 39.363281 19.429688 C 39.21875 19.566406 39.03125 19.636719 38.804688 19.636719 C 38.589844 19.636719 38.410156 19.566406 38.265625 19.429688 C 38.121094 19.292969 38.050781 19.117188 38.050781 18.910156 C 38.050781 18.699219 38.125 18.519531 38.269531 18.382813 C 38.414063 18.242188 38.59375 18.171875 38.816406 18.171875 Z M 37.878906 18.191406 L 38.125 18.191406 L 37.597656 18.863281 L 37.597656 19.621094 L 37.386719 19.621094 L 37.386719 18.863281 L 36.859375 18.191406 L 37.109375 18.191406 L 37.488281 18.683594 Z M 36.253906 18.191406 L 36.441406 18.191406 L 36.441406 19.621094 L 36.238281 19.621094 L 36.238281 18.507813 L 35.796875 19.0625 L 35.761719 19.0625 L 35.316406 18.507813 L 35.316406 19.621094 L 35.109375 19.621094 L 35.109375 18.191406 L 35.304688 18.191406 L 35.78125 18.777344 Z M 34.121094 18.367188 L 34.0625 18.367188 L 34.0625 18.816406 L 34.140625 18.816406 C 34.242188 18.816406 34.316406 18.808594 34.351563 18.789063 C 34.390625 18.773438 34.421875 18.746094 34.445313 18.710938 C 34.464844 18.675781 34.476563 18.632813 34.476563 18.589844 C 34.476563 18.542969 34.464844 18.503906 34.441406 18.464844 C 34.414063 18.429688 34.382813 18.402344 34.339844 18.386719 C 34.296875 18.375 34.222656 18.367188 34.121094 18.367188 Z M 33.859375 19.621094 L 33.859375 18.191406 L 34.214844 18.191406 C 34.359375 18.191406 34.472656 18.226563 34.558594 18.300781 C 34.644531 18.371094 34.6875 18.46875 34.6875 18.589844 C 34.6875 18.671875 34.664063 18.746094 34.625 18.804688 C 34.582031 18.867188 34.523438 18.910156 34.445313 18.941406 C 34.492188 18.972656 34.535156 19.011719 34.578125 19.0625 C 34.621094 19.117188 34.683594 19.207031 34.765625 19.335938 C 34.8125 19.414063 34.851563 19.476563 34.882813 19.519531 L 34.960938 19.621094 L 34.714844 19.621094 L 34.652344 19.527344 C 34.652344 19.523438 34.648438 19.515625 34.640625 19.507813 L 34.601563 19.453125 L 34.535156 19.347656 L 34.46875 19.238281 C 34.425781 19.179688 34.390625 19.132813 34.351563 19.097656 C 34.320313 19.0625 34.285156 19.039063 34.257813 19.023438 C 34.230469 19.007813 34.183594 19 34.113281 19 L 34.0625 19 L 34.0625 19.621094 Z M 32.839844 18.367188 C 32.675781 18.367188 32.539063 18.417969 32.433594 18.519531 C 32.332031 18.621094 32.277344 18.753906 32.277344 18.910156 C 32.277344 19.066406 32.332031 19.191406 32.433594 19.292969 C 32.539063 19.398438 32.671875 19.449219 32.832031 19.449219 C 32.992188 19.449219 33.125 19.394531 33.230469 19.292969 C 33.339844 19.1875 33.390625 19.058594 33.390625 18.902344 C 33.390625 18.75 33.339844 18.625 33.230469 18.519531 C 33.125 18.417969 32.992188 18.367188 32.839844 18.367188 Z M 32.832031 18.171875 C 33.050781 18.171875 33.234375 18.242188 33.382813 18.382813 C 33.527344 18.519531 33.601563 18.695313 33.601563 18.90625 C 33.601563 19.117188 33.527344 19.292969 33.378906 19.429688 C 33.230469 19.566406 33.042969 19.636719 32.820313 19.636719 C 32.601563 19.636719 32.421875 19.566406 32.28125 19.429688 C 32.136719 19.292969 32.066406 19.117188 32.066406 18.910156 C 32.066406 18.699219 32.136719 18.519531 32.28125 18.382813 C 32.425781 18.242188 32.609375 18.171875 32.832031 18.171875 Z M 31.148438 18.191406 L 31.910156 18.191406 L 31.910156 18.375 L 31.351563 18.375 L 31.351563 18.773438 L 31.910156 18.773438 L 31.910156 18.953125 L 31.351563 18.953125 L 31.351563 19.621094 L 31.148438 19.621094 Z M 30.542969 19.019531 L 30.386719 18.925781 C 30.289063 18.867188 30.21875 18.808594 30.179688 18.75 C 30.136719 18.695313 30.117188 18.628906 30.117188 18.554688 C 30.117188 18.441406 30.15625 18.347656 30.234375 18.277344 C 30.3125 18.207031 30.414063 18.171875 30.539063 18.171875 C 30.65625 18.171875 30.765625 18.207031 30.867188 18.273438 L 30.867188 18.507813 C 30.761719 18.40625 30.652344 18.359375 30.53125 18.359375 C 30.46875 18.359375 30.410156 18.375 30.367188 18.40625 C 30.328125 18.433594 30.304688 18.476563 30.304688 18.523438 C 30.304688 18.566406 30.320313 18.605469 30.351563 18.644531 C 30.382813 18.683594 30.433594 18.722656 30.503906 18.761719 L 30.660156 18.855469 C 30.835938 18.957031 30.921875 19.089844 30.921875 19.25 C 30.921875 19.363281 30.882813 19.457031 30.804688 19.527344 C 30.730469 19.601563 30.632813 19.636719 30.507813 19.636719 C 30.367188 19.636719 30.238281 19.59375 30.121094 19.507813 L 30.121094 19.246094 C 30.234375 19.386719 30.359375 19.457031 30.507813 19.457031 C 30.570313 19.457031 30.621094 19.4375 30.664063 19.402344 C 30.710938 19.367188 30.730469 19.320313 30.730469 19.269531 C 30.730469 19.179688 30.667969 19.097656 30.542969 19.019531 Z M 29.6875 18.191406 L 29.882813 18.191406 L 29.882813 19.621094 L 29.707031 19.621094 L 28.753906 18.523438 L 28.753906 19.621094 L 28.558594 19.621094 L 28.558594 18.191406 L 28.726563 18.191406 L 29.6875 19.300781 Z M 27.914063 19.015625 L 27.683594 18.5 L 27.46875 19.015625 Z M 27.613281 18.183594 L 27.757813 18.183594 L 28.398438 19.621094 L 28.1875 19.621094 L 27.996094 19.195313 L 27.390625 19.195313 L 27.210938 19.621094 L 27 19.621094 Z M 26.164063 18.367188 L 26.105469 18.367188 L 26.105469 18.816406 L 26.183594 18.816406 C 26.285156 18.816406 26.355469 18.808594 26.394531 18.789063 C 26.433594 18.773438 26.464844 18.746094 26.484375 18.710938 C 26.507813 18.675781 26.515625 18.632813 26.515625 18.589844 C 26.515625 18.542969 26.503906 18.503906 26.480469 18.464844 C 26.457031 18.429688 26.421875 18.402344 26.382813 18.386719 C 26.335938 18.375 26.265625 18.367188 26.164063 18.367188 Z M 25.902344 19.621094 L 25.902344 18.191406 L 26.257813 18.191406 C 26.402344 18.191406 26.515625 18.226563 26.601563 18.300781 C 26.6875 18.371094 26.726563 18.46875 26.726563 18.589844 C 26.726563 18.671875 26.707031 18.746094 26.667969 18.804688 C 26.625 18.867188 26.566406 18.910156 26.488281 18.941406 C 26.53125 18.972656 26.578125 19.011719 26.621094 19.0625 C 26.664063 19.117188 26.726563 19.207031 26.804688 19.335938 C 26.855469 19.414063 26.894531 19.476563 26.925781 19.519531 L 27 19.621094 L 26.757813 19.621094 L 26.695313 19.527344 C 26.691406 19.523438 26.6875 19.515625 26.683594 19.507813 L 26.644531 19.453125 L 26.578125 19.347656 L 26.511719 19.238281 C 26.46875 19.179688 26.429688 19.132813 26.394531 19.097656 C 26.359375 19.0625 26.328125 19.039063 26.300781 19.023438 C 26.273438 19.007813 26.222656 19 26.15625 19 L 26.105469 19 L 26.105469 19.621094 Z M 24.507813 18.191406 L 25.699219 18.191406 L 25.699219 18.371094 L 25.203125 18.371094 L 25.203125 19.621094 L 24.996094 19.621094 L 24.996094 18.371094 L 24.507813 18.371094 L 24.507813 18.191406 "/>
</g>
</svg>
