<?xml version="1.0" encoding="UTF-8"?>
<svg version="1.1" xmlns="http://www.w3.org/2000/svg" width="404" height="316">
<path d="M0 0 C133.32 0 266.64 0 404 0 C404 104.28 404 208.56 404 316 C270.68 316 137.36 316 0 316 C0 211.72 0 107.44 0 0 Z " fill="#FEFEFE" transform="translate(0,0)"/>
<path d="M0 0 C64.02 0 128.04 0 194 0 C194 0.99 194 1.98 194 3 C194.66 3 195.32 3 196 3 C195.2787144 18.05952827 193.88025697 33.05146914 192.5 48.0625 C192.04942319 52.96981342 191.60106748 57.87731729 191.15625 62.78515625 C191.05046631 63.95035797 190.94468262 65.11555969 190.83569336 66.31607056 C190.16064076 73.87069138 189.60667523 81.41875712 189.22851562 88.99389648 C189.01920048 91.74741936 188.57146395 94.30355574 188 97 C187.73942054 100.76806167 187.55783603 104.53584039 187.37890625 108.30859375 C187.01746158 111.82988463 186.25788169 114.70506294 185 118 C184.31824707 118.12528076 183.63649414 118.25056152 182.93408203 118.37963867 C169.22051651 120.90244962 155.51547357 123.46226803 141.82641602 126.11499023 C132.40926506 127.93472609 122.9783986 129.67706664 113.54101562 131.38867188 C112.46658203 131.58525391 111.39214844 131.78183594 110.28515625 131.984375 C109.33519775 132.15678711 108.38523926 132.32919922 107.40649414 132.50683594 C104.87209176 132.97633964 104.87209176 132.97633964 102 134 C95.74381744 134.3067387 90.08424568 133.4488543 83.96484375 132.20703125 C82.5424514 131.92741547 82.5424514 131.92741547 81.09132385 131.64215088 C78.03850731 131.03976561 74.98802589 130.42636986 71.9375 129.8125 C69.84123917 129.39658331 67.74488474 128.98113816 65.6484375 128.56616211 C54.36166982 126.3231961 43.0929353 124.01816108 31.87182617 121.46435547 C25.78626826 120.09745487 19.76632708 119.20602668 13.546875 118.65234375 C11 118 11 118 9.39424133 116.39137268 C7.55380351 113.23469339 7.41742124 110.72727466 7.14526367 107.08569336 C7.09023745 106.39732706 7.03521122 105.70896076 6.97851753 104.99973488 C6.79955716 102.71805701 6.63988303 100.435464 6.48046875 98.15234375 C6.35815265 96.53726925 6.23477598 94.92227476 6.11039734 93.30735779 C5.78697192 89.05680457 5.48095388 84.80519269 5.1807785 80.55294037 C5.00477391 78.06741684 4.82533218 75.58216814 4.64459229 73.09698486 C3.89146718 62.72649572 3.17603933 52.35369843 2.47619629 41.97949219 C2.25313694 38.68599844 2.02671395 35.39273899 1.80032063 32.099473 C1.58025611 28.89370021 1.36189395 25.68781332 1.14409447 22.48188591 C1.04127531 20.9704276 0.93801445 19.45899926 0.83428383 17.94760323 C0.69162841 15.86434879 0.55118969 13.78095666 0.41137695 11.69750977 C0.3316011 10.52035904 0.25182526 9.34320831 0.16963196 8.13038635 C0.0229565 5.42363894 0 2.71071859 0 0 Z " fill="#FBF8DE" transform="translate(104,92)"/>
<path d="M0 0 C64.02 0 128.04 0 194 0 C194 0.99 194 1.98 194 3 C194.66 3 195.32 3 196 3 C195.2787144 18.05952827 193.88025697 33.05146914 192.5 48.0625 C192.04942319 52.96981342 191.60106748 57.87731729 191.15625 62.78515625 C191.05046631 63.95035797 190.94468262 65.11555969 190.83569336 66.31607056 C190.16064076 73.87069138 189.60667523 81.41875712 189.22851562 88.99389648 C189.01920048 91.74741936 188.57146395 94.30355574 188 97 C187.73942054 100.76806167 187.55783603 104.53584039 187.37890625 108.30859375 C187.01746158 111.82988463 186.25788169 114.70506294 185 118 C184.31824707 118.12528076 183.63649414 118.25056152 182.93408203 118.37963867 C169.22051651 120.90244962 155.51547357 123.46226803 141.82641602 126.11499023 C132.40926506 127.93472609 122.9783986 129.67706664 113.54101562 131.38867188 C112.46658203 131.58525391 111.39214844 131.78183594 110.28515625 131.984375 C109.33519775 132.15678711 108.38523926 132.32919922 107.40649414 132.50683594 C104.87209176 132.97633964 104.87209176 132.97633964 102 134 C95.74381744 134.3067387 90.08424568 133.4488543 83.96484375 132.20703125 C82.5424514 131.92741547 82.5424514 131.92741547 81.09132385 131.64215088 C78.03850731 131.03976561 74.98802589 130.42636986 71.9375 129.8125 C69.84123917 129.39658331 67.74488474 128.98113816 65.6484375 128.56616211 C54.36166982 126.3231961 43.0929353 124.01816108 31.87182617 121.46435547 C25.78626826 120.09745487 19.76632708 119.20602668 13.546875 118.65234375 C11 118 11 118 9.39424133 116.39137268 C7.55380351 113.23469339 7.41742124 110.72727466 7.14526367 107.08569336 C7.09023745 106.39732706 7.03521122 105.70896076 6.97851753 104.99973488 C6.79955716 102.71805701 6.63988303 100.435464 6.48046875 98.15234375 C6.35815265 96.53726925 6.23477598 94.92227476 6.11039734 93.30735779 C5.78697192 89.05680457 5.48095388 84.80519269 5.1807785 80.55294037 C5.00477391 78.06741684 4.82533218 75.58216814 4.64459229 73.09698486 C3.89146718 62.72649572 3.17603933 52.35369843 2.47619629 41.97949219 C2.25313694 38.68599844 2.02671395 35.39273899 1.80032063 32.099473 C1.58025611 28.89370021 1.36189395 25.68781332 1.14409447 22.48188591 C1.04127531 20.9704276 0.93801445 19.45899926 0.83428383 17.94760323 C0.69162841 15.86434879 0.55118969 13.78095666 0.41137695 11.69750977 C0.3316011 10.52035904 0.25182526 9.34320831 0.16963196 8.13038635 C0.0229565 5.42363894 0 2.71071859 0 0 Z M2 2 C2 9.3949379 2.05957615 16.55961193 2.62670898 23.89599609 C2.69337769 24.80494629 2.76004639 25.71389648 2.82873535 26.65039062 C3.04684359 29.60841424 3.27128889 32.56591591 3.49609375 35.5234375 C3.65094919 37.59939304 3.80548991 39.67537209 3.95973206 41.75137329 C4.28229934 46.08006853 4.60788086 50.4085227 4.93579102 54.73681641 C5.35543531 60.27775478 5.76866641 65.81914849 6.17980862 71.3607235 C6.49767311 75.63827446 6.81831105 79.91561388 7.13984871 84.19289017 C7.29325736 86.23653447 7.44594781 88.28023283 7.59789848 90.32398605 C7.81050523 93.17632793 8.02670083 96.02837546 8.24389648 98.88037109 C8.30575638 99.71891632 8.36761627 100.55746155 8.43135071 101.42141724 C8.75841391 105.66389421 9.21946172 109.81059473 10 114 C11.32777466 114.24737915 11.32777466 114.24737915 12.68237305 114.49975586 C17.01797421 115.30938135 21.35286546 116.12271785 25.6875 116.9375 C26.49334534 117.08873322 27.29919067 117.23996643 28.12945557 117.39578247 C38.51158668 119.34744587 48.87833005 121.36351519 59.23046875 123.46875 C60.75099098 123.77710533 60.75099098 123.77710533 62.30223083 124.09169006 C67.28887414 125.10370578 72.2737905 126.12328873 77.2565918 127.15405273 C79.09548685 127.52874582 80.93443299 127.90318828 82.7734375 128.27734375 C83.60429367 128.45201172 84.43514984 128.62667969 85.29118347 128.80664062 C91.70182485 130.10008405 97.60747943 130.47647571 104.0625 129.1171875 C105.00786621 128.92253906 105.95323242 128.72789062 106.92724609 128.52734375 C107.94125488 128.31207031 108.95526367 128.09679687 110 127.875 C112.24197968 127.41305272 114.48417763 126.95216388 116.7265625 126.4921875 C117.90895508 126.24823242 119.09134766 126.00427734 120.30957031 125.75292969 C126.65617817 124.45808061 133.01523692 123.22833328 139.375 122 C140.662854 121.75088867 141.95070801 121.50177734 143.27758789 121.24511719 C156.17206301 118.75955176 169.08295605 116.36529378 182 114 C183.08686574 110.29839811 183.38232031 106.61399979 183.72436523 102.77905273 C183.78957367 102.05796326 183.8547821 101.33687378 183.92196655 100.59393311 C184.13708963 98.20740501 184.34779134 95.82050703 184.55859375 93.43359375 C184.70899772 91.75844011 184.85972432 90.08331541 185.01075745 88.40821838 C185.40886882 83.98523327 185.80344093 79.56194014 186.19702148 75.1385498 C186.82245506 68.11369263 187.45240287 61.08924152 188.08390999 54.06492805 C188.30129208 51.64004342 188.51667577 49.2149879 188.73179626 46.78990173 C188.86967266 45.2471986 189.00781742 43.70451943 189.14624023 42.16186523 C189.21330894 41.41099357 189.28037764 40.6601219 189.34947872 39.88649654 C189.7092785 35.9326463 190.10521754 31.98576611 190.55032349 28.04055786 C190.64266549 27.2124891 190.7350075 26.38442034 190.83014774 25.53125858 C191.00577788 23.97539001 191.18679775 22.42011371 191.37492275 20.86570644 C192.09735691 14.46128149 192 8.5808655 192 2 C129.3 2 66.6 2 2 2 Z " fill="#603594" transform="translate(104,92)"/>
<path d="M0 0 C1.16337891 0.00966797 2.32675781 0.01933594 3.52539062 0.02929688 C4.74033203 0.05443359 5.95527344 0.07957031 7.20703125 0.10546875 C8.43357422 0.11900391 9.66011719 0.13253906 10.92382812 0.14648438 C13.95616789 0.18188134 16.98763121 0.23126115 20.01953125 0.29296875 C20.01953125 0.95296875 20.01953125 1.61296875 20.01953125 2.29296875 C21.00953125 2.29296875 21.99953125 2.29296875 23.01953125 2.29296875 C23.51453125 4.27296875 23.51453125 4.27296875 24.01953125 6.29296875 C23.35953125 6.62296875 22.69953125 6.95296875 22.01953125 7.29296875 C21.52453125 5.80796875 21.52453125 5.80796875 21.01953125 4.29296875 C20.68953125 4.95296875 20.35953125 5.61296875 20.01953125 6.29296875 C19.35953125 6.29296875 18.69953125 6.29296875 18.01953125 6.29296875 C18.01953125 6.95296875 18.01953125 7.61296875 18.01953125 8.29296875 C15.54453125 7.79796875 15.54453125 7.79796875 13.01953125 7.29296875 C11.03953125 10.26296875 11.03953125 10.26296875 9.01953125 13.29296875 C11.49453125 13.78796875 11.49453125 13.78796875 14.01953125 14.29296875 C14.01953125 14.62296875 14.01953125 14.95296875 14.01953125 15.29296875 C6.09953125 15.78796875 6.09953125 15.78796875 -1.98046875 16.29296875 C-1.65046875 17.61296875 -1.32046875 18.93296875 -0.98046875 20.29296875 C0.00953125 20.25816406 0.99953125 20.22335938 2.01953125 20.1875 C9.25885892 20.01162364 15.37888987 20.0404097 22.01953125 23.29296875 C22.01953125 23.95296875 22.01953125 24.61296875 22.01953125 25.29296875 C23.38078125 24.36484375 23.38078125 24.36484375 24.76953125 23.41796875 C27.16901942 21.84907264 29.42914737 20.48853054 32.01953125 19.29296875 C33.58203125 20.54296875 33.58203125 20.54296875 35.01953125 22.29296875 C34.90673828 24.22436523 34.90673828 24.22436523 34.01953125 26.29296875 C31.97607422 27.76586914 31.97607422 27.76586914 29.26171875 29.140625 C28.25391357 29.65874756 27.2461084 30.17687012 26.20776367 30.71069336 C25.11439697 31.25346924 24.02103027 31.79624512 22.89453125 32.35546875 C21.78118408 32.9182251 20.66783691 33.48098145 19.52075195 34.06079102 C17.19370266 35.2316262 14.86296726 36.39516074 12.52880859 37.55175781 C9.13652622 39.23491893 5.75942716 40.94583611 2.3828125 42.66015625 C0.32528295 43.68573155 -1.73326837 44.7092602 -3.79296875 45.73046875 C-4.75799316 46.2210376 -5.72301758 46.71160645 -6.71728516 47.21704102 C-7.61495605 47.65330811 -8.51262695 48.0895752 -9.4375 48.5390625 C-10.61276245 49.12192017 -10.61276245 49.12192017 -11.81176758 49.71655273 C-13.98046875 50.29296875 -13.98046875 50.29296875 -16.1237793 49.44165039 C-16.73648682 49.06258545 -17.34919434 48.68352051 -17.98046875 48.29296875 C-19.30469745 47.92512744 -20.63660787 47.58093894 -21.98046875 47.29296875 C-21.68398437 46.71804687 -21.3875 46.143125 -21.08203125 45.55078125 C-16.94528274 37.07191374 -15.51248563 28.54790546 -17.98046875 19.29296875 C-16.00046875 18.63296875 -14.02046875 17.97296875 -11.98046875 17.29296875 C-12.31046875 16.30296875 -12.64046875 15.31296875 -12.98046875 14.29296875 C-12.65046875 13.30296875 -12.32046875 12.31296875 -11.98046875 11.29296875 C-14.29046875 10.30296875 -16.60046875 9.31296875 -18.98046875 8.29296875 C-19.02318975 6.6268497 -19.02110707 4.9591399 -18.98046875 3.29296875 C-18.65046875 2.96296875 -18.32046875 2.63296875 -17.98046875 2.29296875 C-15.70550123 2.5558136 -13.46354788 2.94246975 -11.20703125 3.33203125 C-10.10488281 3.31269531 -10.10488281 3.31269531 -8.98046875 3.29296875 C-8.56289307 2.80320557 -8.14531738 2.31344238 -7.71508789 1.80883789 C-5.19085056 -0.39707198 -3.30696853 -0.04839466 0 0 Z " fill="#FDFABE" transform="translate(198.98046875,95.70703125)"/>
<path d="M0 0 C3.41659491 -0.05816623 6.83306205 -0.09365195 10.25 -0.125 C11.21808594 -0.14175781 12.18617188 -0.15851563 13.18359375 -0.17578125 C14.11816406 -0.18222656 15.05273438 -0.18867188 16.015625 -0.1953125 C16.87446289 -0.20578613 17.73330078 -0.21625977 18.61816406 -0.22705078 C21.24732771 0.02357675 22.78976111 0.56757 25 2 C27.51285228 5.76927842 27.138809 7.50918181 26.546875 11.8359375 C25.78475184 14.85176773 24.5563889 16.27067809 22 18 C21.01 18 20.02 18 19 18 C19 18.66 19 19.32 19 20 C19.763125 20.103125 20.52625 20.20625 21.3125 20.3125 C24.27219702 21.0696318 25.1776515 21.60614575 27 24 C27.14453125 26.12109375 27.14453125 26.12109375 26.8125 28.4375 C26.66748047 29.58025391 26.66748047 29.58025391 26.51953125 30.74609375 C25.80528631 33.84473531 24.96503912 36.22180116 22.44140625 38.25683594 C16.58843017 41.30196538 11.51279822 41.48356242 5 41.25 C4.03449219 41.23195312 3.06898438 41.21390625 2.07421875 41.1953125 C-0.28492033 41.14859687 -2.64191075 41.08312137 -5 41 C-4.88406494 40.1843457 -4.76812988 39.36869141 -4.64868164 38.52832031 C-4.21171695 35.44227085 -3.77785367 32.35580411 -3.34594727 29.26904297 C-3.06953746 27.300129 -2.78969621 25.33169773 -2.50976562 23.36328125 C-1.42407685 15.58580169 -0.54846741 7.83420223 0 0 Z " fill="#0C0C0C" transform="translate(129,143)"/>
<path d="M0 0 C2 1 2 1 2.75 2.9375 C2.8325 3.618125 2.915 4.29875 3 5 C2.34 5.66 1.68 6.32 1 7 C1 7.99 1 8.98 1 10 C1.99 10.66 2.98 11.32 4 12 C6.07935207 11.5899433 6.07935207 11.5899433 8 10 C8.68790422 7.30341548 8.81946464 4.7982981 9 2 C10.32 2.66 11.64 3.32 13 4 C12.01 4 11.02 4 10 4 C10 5.98 10 7.96 10 10 C10.66 10 11.32 10 12 10 C12.33 8.68 12.66 7.36 13 6 C13.495 10.455 13.495 10.455 14 15 C7.67401637 17.23006898 1.45390157 18.90075898 -5.125 20.1875 C-6.40697266 20.45336914 -6.40697266 20.45336914 -7.71484375 20.72460938 C-8.55402344 20.89154297 -9.39320313 21.05847656 -10.2578125 21.23046875 C-11.0017627 21.37895264 -11.74571289 21.52743652 -12.51220703 21.68041992 C-19.39352051 22.56438845 -25.62956306 21.48797893 -32.3515625 20.13671875 C-33.32862152 19.94406937 -34.30568054 19.75141998 -35.31234741 19.55293274 C-37.3687408 19.14522241 -39.42444825 18.73403866 -41.47949219 18.31958008 C-44.61948324 17.68860858 -47.76256782 17.07517185 -50.90625 16.46289062 C-52.90906557 16.06355881 -54.91167728 15.66320289 -56.9140625 15.26171875 C-57.85061676 15.08033859 -58.78717102 14.89895844 -59.75210571 14.71208191 C-64.37652869 13.76419163 -68.1050135 12.8304518 -72 10 C-71.7215625 9.1028125 -71.7215625 9.1028125 -71.4375 8.1875 C-70.77906313 5.83591238 -70.77906313 5.83591238 -72 3 C-70.68 2.67 -69.36 2.34 -68 2 C-67.67 2.99 -67.34 3.98 -67 5 C-64.69 5.33 -62.38 5.66 -60 6 C-59.67 5.34 -59.34 4.68 -59 4 C-59 4.66 -59 5.32 -59 6 C-58.34 6 -57.68 6 -57 6 C-56.67 4.68 -56.34 3.36 -56 2 C-55.34 2.33 -54.68 2.66 -54 3 C-54.33 3.99 -54.66 4.98 -55 6 C-54.34 6 -53.68 6 -53 6 C-52.67 5.34 -52.34 4.68 -52 4 C-51.67 4.66 -51.34 5.32 -51 6 C-48.97536745 6.65213292 -48.97536745 6.65213292 -47 7 C-47 7.99 -47 8.98 -47 10 C-46.21625 9.195625 -45.4325 8.39125 -44.625 7.5625 C-42 5 -42 5 -40 4 C-39.505 5.485 -39.505 5.485 -39 7 C-37.948125 6.938125 -37.948125 6.938125 -36.875 6.875 C-33.61628372 7.01668332 -31.0440053 7.86734686 -28 9 C-27.67 8.34 -27.34 7.68 -27 7 C-26.505 7.99 -26.505 7.99 -26 9 C-25.34 8.01 -24.68 7.02 -24 6 C-23.34 6 -22.68 6 -22 6 C-22 5.34 -22 4.68 -22 4 C-21.01 4.33 -20.02 4.66 -19 5 C-19 6.65 -19 8.3 -19 10 C-18.67 9.01 -18.34 8.02 -18 7 C-17.34 7 -16.68 7 -16 7 C-16.33 8.32 -16.66 9.64 -17 11 C-16.34 11 -15.68 11 -15 11 C-14.67 9.68 -14.34 8.36 -14 7 C-13.34 7.99 -12.68 8.98 -12 10 C-11.34 9.01 -10.68 8.02 -10 7 C-9.505 8.98 -9.505 8.98 -9 11 C-8.67 7.7 -8.34 4.4 -8 1 C-7.236875 1.20625 -6.47375 1.4125 -5.6875 1.625 C-2.78114056 2.33391203 -2.78114056 2.33391203 0 0 Z " fill="#FAF7F9" transform="translate(218,200)"/>
<path d="M0 0 C0.90105469 0.00902344 1.80210937 0.01804688 2.73046875 0.02734375 C3.41753906 0.03894531 4.10460937 0.05054688 4.8125 0.0625 C4.37135945 7.54667758 3.49332451 14.9562821 2.4375 22.375 C2.32365967 23.22223633 2.20981934 24.06947266 2.0925293 24.94238281 C0.93431963 32.80182824 -0.92725548 38.71838882 -7.1875 44.0625 C-10.33937139 45.99385949 -12.69959098 46.30971861 -16.375 46.25 C-17.25542969 46.24355469 -18.13585937 46.23710937 -19.04296875 46.23046875 C-21.1875 46.0625 -21.1875 46.0625 -22.1875 45.0625 C-22.25955511 43.37641034 -22.27136068 41.68749341 -22.25 40 C-22.24097656 39.08089844 -22.23195312 38.16179687 -22.22265625 37.21484375 C-22.21105469 36.50457031 -22.19945312 35.79429687 -22.1875 35.0625 C-21.5275 35.0625 -20.8675 35.0625 -20.1875 35.0625 C-19.589375 35.8875 -18.99125 36.7125 -18.375 37.5625 C-16.43590491 40.26214343 -16.43590491 40.26214343 -13.625 40.6875 C-10.98414811 40.26950096 -10.98414811 40.26950096 -9.375 37.8125 C-7.92320932 34.9496983 -7.92320932 34.9496983 -8.1875 31.0625 C-8.744375 31.413125 -9.30125 31.76375 -9.875 32.125 C-12.84875011 33.33057437 -14.20060836 33.21130448 -17.1875 32.0625 C-21.17417798 26.67665138 -20.91719422 21.51232591 -20.1875 15.0625 C-18.41215865 8.35193301 -14.02549005 4.52693352 -8.1875 1.0625 C-5.17259443 0.05753148 -3.14568308 -0.04085303 0 0 Z " fill="#0E0E0E" transform="translate(223.1875,151.9375)"/>
<path d="M0 0 C0.91089807 16.67955576 0.91089807 16.67955576 -3.62109375 22.515625 C-4.07613281 23.00546875 -4.53117188 23.4953125 -5 24 C-6.1446875 25.2375 -6.1446875 25.2375 -7.3125 26.5 C-7.869375 26.995 -8.42625 27.49 -9 28 C-2.68532366 26.03317979 3.3293851 23.69206789 9.3125 20.875 C10.1362915 20.48755615 10.96008301 20.1001123 11.80883789 19.70092773 C18.01467017 16.68572975 23.29644112 13.21714803 28.65234375 8.84765625 C30.72095691 7.21961295 32.60435838 6.06164165 35 5 C36.5625 6.25 36.5625 6.25 38 8 C37.88720703 9.93139648 37.88720703 9.93139648 37 12 C34.95654297 13.47290039 34.95654297 13.47290039 32.2421875 14.84765625 C31.23438232 15.36577881 30.22657715 15.88390137 29.18823242 16.41772461 C28.09486572 16.96050049 27.00149902 17.50327637 25.875 18.0625 C24.76165283 18.62525635 23.64830566 19.1880127 22.5012207 19.76782227 C20.17417141 20.93865745 17.84343601 22.10219199 15.50927734 23.25878906 C12.11699497 24.94195018 8.73989591 26.65286736 5.36328125 28.3671875 C3.3057517 29.3927628 1.24720038 30.41629145 -0.8125 31.4375 C-1.77752441 31.92806885 -2.74254883 32.4186377 -3.73681641 32.92407227 C-4.6344873 33.36033936 -5.5321582 33.79660645 -6.45703125 34.24609375 C-7.6322937 34.82895142 -7.6322937 34.82895142 -8.83129883 35.42358398 C-11 36 -11 36 -13.14331055 35.14868164 C-13.75601807 34.7696167 -14.36872559 34.39055176 -15 34 C-16.3242287 33.63215869 -17.65613912 33.28797019 -19 33 C-18.70351562 32.42507812 -18.40703125 31.85015625 -18.1015625 31.2578125 C-13.84189359 22.52700176 -12.91161621 14.49877788 -15 5 C-13.44424022 4.15415002 -11.8800388 3.32381601 -10.3125 2.5 C-9.44238281 2.0359375 -8.57226562 1.571875 -7.67578125 1.09375 C-4.88211171 -0.04818792 -2.98370887 -0.21504208 0 0 Z " fill="#5B2C8F" transform="translate(196,110)"/>
<path d="M0 0 C64.02 0 128.04 0 194 0 C193.67 3.3 193.34 6.6 193 10 C192.67 10 192.34 10 192 10 C192 7.36 192 4.72 192 2 C129.3 2 66.6 2 2 2 C3.65 23.45 5.3 44.9 7 67 C10.07099182 107.98185631 10.07099182 107.98185631 10 114 C12.31 114 14.62 114 17 114 C15.02 114.99 15.02 114.99 13 116 C13.66 116.66 14.32 117.32 15 118 C12.625 117.6875 12.625 117.6875 10 117 C7.62670296 113.44005443 7.57643028 111.42545144 7.24291992 107.18334961 C7.18647875 106.49356836 7.13003757 105.80378712 7.07188606 105.09310341 C6.88684941 102.80095076 6.71471453 100.50802773 6.54296875 98.21484375 C6.41560398 96.59524782 6.28767963 94.97569581 6.15922546 93.35618591 C5.75750434 88.23856877 5.37579642 83.11957964 5 78 C4.94000069 77.18329079 4.88000137 76.36658157 4.8181839 75.5251236 C4.00020104 64.34576741 3.23065436 53.16329076 2.47619629 41.97949219 C2.25313694 38.68599844 2.02671395 35.39273899 1.80032063 32.099473 C1.58025611 28.89370021 1.36189395 25.68781332 1.14409447 22.48188591 C1.04127531 20.9704276 0.93801445 19.45899926 0.83428383 17.94760323 C0.69162841 15.86434879 0.55118969 13.78095666 0.41137695 11.69750977 C0.3316011 10.52035904 0.25182526 9.34320831 0.16963196 8.13038635 C0.0229565 5.42363894 0 2.71071859 0 0 Z " fill="#6E459A" transform="translate(104,92)"/>
<path d="M0 0 C1.18206661 3.54619984 0.76796128 5.46980914 0.125 9.125 C-0.05804688 10.20007813 -0.24109375 11.27515625 -0.4296875 12.3828125 C-1 15 -1 15 -2 16 C-3.84891946 16.23363881 -5.70488031 16.41303635 -7.5625 16.5625 C-9.08037109 16.68818359 -9.08037109 16.68818359 -10.62890625 16.81640625 C-11.41136719 16.87699219 -12.19382813 16.93757813 -13 17 C-12.7215625 17.9590625 -12.7215625 17.9590625 -12.4375 18.9375 C-12.293125 19.618125 -12.14875 20.29875 -12 21 C-13.72839156 22.72839156 -16.26779746 22.45754311 -18.625 22.75 C-26.09840507 23.93188213 -29.66609287 26.66609287 -35 32 C-35 29.03 -35 26.06 -35 23 C-39.19162145 23.95264124 -40.7207791 24.63260408 -43.375 28.125 C-43.91125 29.07375 -44.4475 30.0225 -45 31 C-45.82638376 28.10765685 -46 26.11257569 -46 23 C-47.32 23.33 -48.64 23.66 -50 24 C-50 23.34 -50 22.68 -50 22 C-50.99 22 -51.98 22 -53 22 C-52.505 20.515 -52.505 20.515 -52 19 C-50.3125 18.4375 -50.3125 18.4375 -48 18 C-44.44892106 16.99643421 -41.90415602 15.93610401 -38.8125 13.875 C-36 12 -36 12 -33 12 C-32.01 13.485 -32.01 13.485 -31 15 C-30.34 14.690625 -29.68 14.38125 -29 14.0625 C-26 13 -26 13 -22.0625 12.625 C-17.87595202 12.19136509 -15.37605546 10.53204159 -12 8 C-10.6808418 7.30570621 -9.35350594 6.62469505 -8 6 C-8 5.34 -8 4.68 -8 4 C-5.36 3.34 -2.72 2.68 0 2 C0 1.34 0 0.68 0 0 Z " fill="#F7F8EA" transform="translate(240,130)"/>
<path d="M0 0 C2.375 1.1875 2.375 1.1875 4 3 C4.77262438 7.19424661 3.34793424 9.57592924 1 13 C1.99 13 2.98 13 4 13 C3.67 13.804375 3.34 14.60875 3 15.4375 C1.93940959 17.69681125 1.93940959 17.69681125 2 19 C2.66 19 3.32 19 4 19 C4.20625 18.38125 4.4125 17.7625 4.625 17.125 C6.54775888 14.15346355 8.66594527 13.86975341 12 13 C12.495 15.475 12.495 15.475 13 18 C13.99 16.68 14.98 15.36 16 14 C16.66 14.33 17.32 14.66 18 15 C17.34 16.32 16.68 17.64 16 19 C17.32 18.67 18.64 18.34 20 18 C20.495 18.99 20.495 18.99 21 20 C21 18.02 21 16.04 21 14 C21.66 13.67 22.32 13.34 23 13 C23 15.31 23 17.62 23 20 C21.125 21.0625 21.125 21.0625 19 22 C18.34 21.67 17.68 21.34 17 21 C16.01 21.495 16.01 21.495 15 22 C13.58630274 22.07177039 12.16926201 22.0839245 10.75390625 22.0625 C9.91666016 22.05476563 9.07941406 22.04703125 8.21679688 22.0390625 C6.45117103 22.01307831 4.68554602 21.9870369 2.91992188 21.9609375 C2.08138672 21.95320313 1.24285156 21.94546875 0.37890625 21.9375 C-0.3886499 21.92589844 -1.15620605 21.91429687 -1.94702148 21.90234375 C-4.20147956 21.91671845 -4.20147956 21.91671845 -7 23 C-2.71 23.99 1.58 24.98 6 26 C5.67 26.66 5.34 27.32 5 28 C0.4705188 27.58060359 -3.40339333 26.91054723 -7.6875 25.375 C-13.84054273 23.38797996 -19.68027883 24.17784192 -26 25 C-26 24.01 -26 23.02 -26 22 C-23.70370006 20.85185003 -21.92301914 20.69230191 -19.375 20.4375 C-18.14910156 20.31181641 -18.14910156 20.31181641 -16.8984375 20.18359375 C-16.27195313 20.12300781 -15.64546875 20.06242187 -15 20 C-14.90203125 19.20335937 -14.8040625 18.40671875 -14.703125 17.5859375 C-13.82878012 11.39014878 -13.14942191 6.77812219 -9 2 C-5.51131349 -0.32579101 -4.10281481 -0.41865457 0 0 Z " fill="#E2E2D6" transform="translate(253,125)"/>
<path d="M0 0 C2.0625 1.0625 2.0625 1.0625 3 3 C3.1334469 6.53634294 2.91713521 8.91702665 0.57421875 11.68359375 C-3.13510515 14.9816844 -7.84512003 19 -13 19 C-12.67 21.31 -12.34 23.62 -12 26 C-6.73860941 25.59527765 -4.51787928 24.89479492 -1 21 C-0.01 21 0.98 21 2 21 C-0.01389676 25.52881173 -2.88537611 28.29016689 -7 31 C-10.98094159 32.16682771 -12.96155849 32.4153766 -16.8125 30.875 C-20.04389252 28.10523498 -20.78336582 25.93304342 -21.25390625 21.734375 C-21.54450831 15.62235752 -20.58759803 11.01567103 -17 6 C-14.5 3.625 -14.5 3.625 -12 2 C-11.401875 1.5875 -10.80375 1.175 -10.1875 0.75 C-6.64790702 -0.46357473 -3.74256252 -0.29702877 0 0 Z " fill="#0D0D0D" transform="translate(179,153)"/>
<path d="M0 0 C2.0625 1.0625 2.0625 1.0625 3 3 C3.1334469 6.53634294 2.91713521 8.91702665 0.57421875 11.68359375 C-3.13510515 14.9816844 -7.84512003 19 -13 19 C-12.67 21.31 -12.34 23.62 -12 26 C-6.73860941 25.59527765 -4.51787928 24.89479492 -1 21 C-0.01 21 0.98 21 2 21 C-0.01788435 25.53777894 -2.89063498 28.27151472 -7 31 C-10.5625 32.1875 -10.5625 32.1875 -14 32 C-17.02302955 30.26090884 -19.41774738 28.16450523 -21 25 C-21.73325162 17.85981214 -21.31227268 11.90320823 -17 6 C-14.5 3.625 -14.5 3.625 -12 2 C-11.401875 1.5875 -10.80375 1.175 -10.1875 0.75 C-6.64790702 -0.46357473 -3.74256252 -0.29702877 0 0 Z " fill="#0E0E0E" transform="translate(250,153)"/>
<path d="M0 0 C0.99 0 1.98 0 3 0 C3.33 2.31 3.66 4.62 4 7 C4.99 6.96519531 5.98 6.93039063 7 6.89453125 C20.62642219 6.55826798 20.62642219 6.55826798 27 10 C27.495 11.485 27.495 11.485 28 13 C19.15453602 19.11349562 9.8040225 23.65114424 0 28 C-0.93070313 28.42667969 -1.86140625 28.85335937 -2.8203125 29.29296875 C-5 30 -5 30 -8 29 C-7.51789063 28.46890625 -7.03578125 27.9378125 -6.5390625 27.390625 C-5.90742188 26.68421875 -5.27578125 25.9778125 -4.625 25.25 C-3.99851563 24.55390625 -3.37203125 23.8578125 -2.7265625 23.140625 C0.98828579 18.53488549 1.37794828 14.57630304 1.625 8.75 C1.68300781 7.63238281 1.68300781 7.63238281 1.7421875 6.4921875 C1.83605108 4.6618476 1.91909718 2.83095857 2 1 C1.34 0.67 0.68 0.34 0 0 Z " fill="#F39AC0" transform="translate(194,109)"/>
<path d="M0 0 C-0.76687117 7.97546012 -0.76687117 7.97546012 -4 11 C-6.04973403 12.15477974 -8.12032805 13.18535227 -10.2578125 14.16796875 C-11.98515969 14.87404505 -11.98515969 14.87404505 -13 16 C-14.59391863 16.39775383 -16.20088224 16.74395183 -17.8125 17.0625 C-18.68519531 17.23910156 -19.55789062 17.41570312 -20.45703125 17.59765625 C-23 18 -23 18 -27 18 C-27.33 17.01 -27.66 16.02 -28 15 C-30.92880826 16.3978403 -33.64879308 17.73659481 -36.25 19.6875 C-38 21 -38 21 -40 21 C-40.66 19.35 -41.32 17.7 -42 16 C-21.99981239 6.16910265 -21.99981239 6.16910265 -12 2.375 C-11.36126953 2.1279834 -10.72253906 1.8809668 -10.06445312 1.62646484 C-6.5966895 0.35451602 -3.69313133 -0.26579354 0 0 Z " fill="#5D3191" transform="translate(235,127)"/>
<path d="M0 0 C0 2.31 0 4.62 0 7 C1.0828125 5.515 1.0828125 5.515 2.1875 4 C4.6095123 1.05206503 4.6095123 1.05206503 7.8125 0.625 C8.534375 0.74875 9.25625 0.8725 10 1 C10 3.64 10 6.28 10 9 C9.0925 9.226875 8.185 9.45375 7.25 9.6875 C3.3553866 11.26032464 2.32570773 12.5298964 0 16 C-1.11982847 18.71714901 -1.94720941 21.48758594 -2.75 24.3125 C-2.97042969 25.05306641 -3.19085938 25.79363281 -3.41796875 26.55664062 C-3.95555854 28.36808447 -4.47921445 30.18365367 -5 32 C-6.98 32 -8.96 32 -11 32 C-11.32001346 22.23958934 -10.11306313 12.67967405 -9 3 C-7.68825887 2.4980125 -6.37558403 1.99846423 -5.0625 1.5 C-4.33160156 1.2215625 -3.60070312 0.943125 -2.84765625 0.65625 C-1 0 -1 0 0 0 Z " fill="#0F0F0F" transform="translate(195,152)"/>
<path d="M0 0 C0 2.64 0 5.28 0 8 C0.433125 7.21625 0.86625 6.4325 1.3125 5.625 C3 3 3 3 6 1 C7.32 1 8.64 1 10 1 C10 3.64 10 6.28 10 9 C9.113125 9.165 8.22625 9.33 7.3125 9.5 C2.62632303 11.6220424 1.08946195 14.39479791 -1 19 C-2.50507689 23.28971427 -3.80346619 27.61493754 -5 32 C-6.98 32 -8.96 32 -11 32 C-10.49929946 22.31623842 -9.99881766 12.64815354 -9 3 C-7.68825887 2.4980125 -6.37558403 1.99846423 -5.0625 1.5 C-4.33160156 1.2215625 -3.60070312 0.943125 -2.84765625 0.65625 C-1 0 -1 0 0 0 Z " fill="#0B0B0B" transform="translate(266,152)"/>
<path d="M0 0 C0.99 0 1.98 0 3 0 C2.37465667 12.29704746 1.39965974 24.54610369 0.27050781 36.80664062 C-0.00343754 39.78740346 -0.27148138 42.7686598 -0.5390625 45.75 C-0.7131941 47.66149003 -0.88766061 49.57294958 -1.0625 51.484375 C-1.14169678 52.36768494 -1.22089355 53.25099487 -1.30249023 54.16107178 C-1.67485584 58.1653696 -2.09030471 62.07341702 -3 66 C-3.33 66 -3.66 66 -4 66 C-8.13627168 44.95171427 -4.12158631 20.76401214 0 0 Z " fill="#5C2E90" transform="translate(297,95)"/>
<path d="M0 0 C0.94875 0.350625 1.8975 0.70125 2.875 1.0625 C3.205 2.7125 3.535 4.3625 3.875 6.0625 C2.225 6.0625 0.575 6.0625 -1.125 6.0625 C-1.455 7.0525 -1.785 8.0425 -2.125 9.0625 C-3.10253644 10.08446992 -4.1055881 11.08229625 -5.125 12.0625 C-6.14300576 13.38213709 -7.14748365 14.71259646 -8.125 16.0625 C-8.125 13.0925 -8.125 10.1225 -8.125 7.0625 C-10.435 7.3925 -12.745 7.7225 -15.125 8.0625 C-15.125 7.4025 -15.125 6.7425 -15.125 6.0625 C-15.97964844 5.86914062 -16.83429688 5.67578125 -17.71484375 5.4765625 C-18.81957031 5.21617187 -19.92429688 4.95578125 -21.0625 4.6875 C-22.16464844 4.43226563 -23.26679688 4.17703125 -24.40234375 3.9140625 C-25.75005859 3.49253906 -25.75005859 3.49253906 -27.125 3.0625 C-27.455 2.4025 -27.785 1.7425 -28.125 1.0625 C-21.32057357 0.20234677 -14.66957916 -0.00437885 -7.8125 0.125 C-0.17535971 -0.05260791 -0.17535971 -0.05260791 0 0 Z " fill="#F4F4ED" transform="translate(273.125,145.9375)"/>
<path d="M0 0 C0.75 1.625 0.75 1.625 1 4 C-1.43891273 9.08990482 -4.31996492 11.05163578 -9.29296875 13.23828125 C-10.99494942 13.87575195 -10.99494942 13.87575195 -12 15 C-13.59391863 15.39775383 -15.20088224 15.74395183 -16.8125 16.0625 C-17.68519531 16.23910156 -18.55789062 16.41570312 -19.45703125 16.59765625 C-22 17 -22 17 -26 17 C-26.66 15.68 -27.32 14.36 -28 13 C-11.68162898 5.52671842 -11.68162898 5.52671842 -2.94140625 3.703125 C-2.30074219 3.47109375 -1.66007812 3.2390625 -1 3 C-0.67 2.01 -0.34 1.02 0 0 Z " fill="#E0E8D9" transform="translate(234,128)"/>
<path d="M0 0 C0 0.99 0 1.98 0 3 C-3.33333333 6 -3.33333333 6 -6 6 C-6.33 5.34 -6.66 4.68 -7 4 C-12.24702779 2.06866159 -16.88800823 1.74299013 -22.4375 1.875 C-23.53481445 1.88853516 -23.53481445 1.88853516 -24.65429688 1.90234375 C-26.43634298 1.92563847 -28.21821759 1.9614981 -30 2 C-30 0.35 -30 -1.3 -30 -3 C-20.26585767 -6.24471411 -9.03710045 -4.28879343 0 0 Z " fill="#F7C2D9" transform="translate(227,115)"/>
<path d="M0 0 C0 1.32 0 2.64 0 4 C0.99 2.68 1.98 1.36 3 0 C3.66 0.33 4.32 0.66 5 1 C4.34 2.32 3.68 3.64 3 5 C4.32 4.67 5.64 4.34 7 4 C7.33 4.66 7.66 5.32 8 6 C8 4.02 8 2.04 8 0 C8.66 -0.33 9.32 -0.66 10 -1 C10 1.31 10 3.62 10 6 C8.125 7.0625 8.125 7.0625 6 8 C5.34 7.67 4.68 7.34 4 7 C3.01 7.495 3.01 7.495 2 8 C0.3325394 8.08426094 -1.33825187 8.10725143 -3.0078125 8.09765625 C-3.99394531 8.09443359 -4.98007812 8.09121094 -5.99609375 8.08789062 C-7.02863281 8.07951172 -8.06117188 8.07113281 -9.125 8.0625 C-10.68541016 8.05573242 -10.68541016 8.05573242 -12.27734375 8.04882812 C-14.85161962 8.03701952 -17.42578146 8.02055075 -20 8 C-20.57421875 5.61328125 -20.57421875 5.61328125 -21 3 C-19.8125 1.1875 -19.8125 1.1875 -18 0 C-16.68 0 -15.36 0 -14 0 C-14 0.99 -14 1.98 -14 3 C-14.99 2.67 -15.98 2.34 -17 2 C-17.99 3.485 -17.99 3.485 -19 5 C-15.75791433 4.64950425 -14.38472296 4.43778819 -12.1875 1.9375 C-11.795625 1.298125 -11.40375 0.65875 -11 0 C-10.34 0.33 -9.68 0.66 -9 1 C-9.66 2.32 -10.32 3.64 -11 5 C-10.34 5 -9.68 5 -9 5 C-8.62875 4.071875 -8.62875 4.071875 -8.25 3.125 C-6.05756043 -0.60214727 -4.06146667 -1.35382222 0 0 Z " fill="#646460" transform="translate(266,139)"/>
<path d="M0 0 C7.2 -0.36 7.2 -0.36 10.5 1.125 C12 3 12 3 12.5 5.9375 C12 9 12 9 10.5625 11.375 C6.67632781 13.83940188 3.54866791 13.2675687 -1 13 C-0.67 8.71 -0.34 4.42 0 0 Z " fill="#F5F5F4" transform="translate(135,165)"/>
<path d="M0 0 C1.72880982 -0.05449838 3.45812712 -0.09301688 5.1875 -0.125 C6.15042969 -0.14820312 7.11335938 -0.17140625 8.10546875 -0.1953125 C11.12812778 0.0086456 13.26769985 0.73125368 16 2 C11.93629372 5.20707631 7.64285113 7.15707177 2.9375 9.25 C2.12216797 9.62640625 1.30683594 10.0028125 0.46679688 10.390625 C-0.31759766 10.74125 -1.10199219 11.091875 -1.91015625 11.453125 C-2.62308838 11.77442383 -3.33602051 12.09572266 -4.07055664 12.42675781 C-6 13 -6 13 -9 12 C-8.51789063 11.46890625 -8.03578125 10.9378125 -7.5390625 10.390625 C-6.90742188 9.68421875 -6.27578125 8.9778125 -5.625 8.25 C-4.68527344 7.20585937 -4.68527344 7.20585937 -3.7265625 6.140625 C-2.12494817 4.15491312 -1.03479932 2.32045907 0 0 Z " fill="#EC1B22" transform="translate(195,126)"/>
<path d="M0 0 C0.33 0 0.66 0 1 0 C1.57267437 7.86518065 2.1419906 15.73059922 2.70898438 23.59619141 C2.90198187 26.27139614 3.09604269 28.94652056 3.29101562 31.62158203 C3.57103073 35.46893247 3.84828221 39.31647367 4.125 43.1640625 C4.21249512 44.35802643 4.29999023 45.55199036 4.39013672 46.78213501 C4.47021973 47.90284393 4.55030273 49.02355286 4.6328125 50.17822266 C4.70387207 51.15973297 4.77493164 52.14124329 4.84814453 53.15249634 C5.00571187 56.10710563 5.02575324 59.04176748 5 62 C7.31 62 9.62 62 12 62 C10.68 62.66 9.36 63.32 8 64 C8.66 64.66 9.32 65.32 10 66 C7.625 65.6875 7.625 65.6875 5 65 C2.65594899 61.48392349 2.486641 58.6868465 2.18359375 54.60546875 C2.12238846 53.86935867 2.06118317 53.1332486 1.99812317 52.37483215 C1.80195519 49.97969735 1.61908703 47.58378107 1.4375 45.1875 C1.30785533 43.5475072 1.1779719 41.90753325 1.04785156 40.26757812 C0.33855377 31.18525476 -0.30521041 22.09955461 -0.75 13 C-0.79455322 12.12496826 -0.83910645 11.24993652 -0.88500977 10.34838867 C-1.03585077 6.68854848 -1.00537416 3.51978944 0 0 Z " fill="#70499D" transform="translate(109,144)"/>
<path d="M0 0 C1.32 0 2.64 0 4 0 C3.54120323 6.99665078 2.36194303 13.75639152 -1 20 C-3.13671875 21.31640625 -3.13671875 21.31640625 -5 22 C-5.48363396 14.06034246 -5.10569512 7.94175761 -1 1 C-0.67 0.67 -0.34 0.34 0 0 Z " fill="#F0F1EF" transform="translate(216,157)"/>
<path d="M0 0 C7.33834586 -0.36090226 7.33834586 -0.36090226 10.0625 1.125 C11.53295952 4.06591903 10.96083392 5.92533147 10 9 C8.375 10.875 8.375 10.875 6 12 C2.25 12.1875 2.25 12.1875 -1 12 C-0.67 8.04 -0.34 4.08 0 0 Z " fill="#ECEDE6" transform="translate(137,148)"/>
<path d="M0 0 C0.99 0 1.98 0 3 0 C3 3.96 3 7.92 3 12 C3.86882812 11.96519531 4.73765625 11.93039063 5.6328125 11.89453125 C17.07908612 11.62565905 17.07908612 11.62565905 22 15 C21.67 15.99 21.34 16.98 21 18 C14.29099127 19.45803685 8.71034203 18.16403892 2 17 C2 11.72 2 6.44 2 1 C1.34 0.67 0.68 0.34 0 0 Z " fill="#F26BA0" transform="translate(194,109)"/>
<path d="M0 0 C0.70189453 0.00451172 1.40378906 0.00902344 2.12695312 0.01367188 C3.85550538 0.02543073 5.58401365 0.04336546 7.3125 0.0625 C7.3125 0.7225 7.3125 1.3825 7.3125 2.0625 C8.3025 2.0625 9.2925 2.0625 10.3125 2.0625 C10.6425 3.3825 10.9725 4.7025 11.3125 6.0625 C10.3225 6.5575 10.3225 6.5575 9.3125 7.0625 C8.9825 6.0725 8.6525 5.0825 8.3125 4.0625 C7.9825 4.7225 7.6525 5.3825 7.3125 6.0625 C6.6525 6.0625 5.9925 6.0625 5.3125 6.0625 C5.3125 6.7225 5.3125 7.3825 5.3125 8.0625 C4.405 7.876875 3.4975 7.69125 2.5625 7.5 C-0.41793171 7.09878804 -1.90704507 7.16878234 -4.6875 8.0625 C-5.3475 8.0625 -6.0075 8.0625 -6.6875 8.0625 C-8.18274178 5.7897325 -9.47149715 3.4945057 -10.6875 1.0625 C-7.06882441 -0.1437252 -3.76243749 -0.04566918 0 0 Z " fill="#FCF8AF" transform="translate(211.6875,95.9375)"/>
<path d="M0 0 C0.66 0 1.32 0 2 0 C2 0.66 2 1.32 2 2 C3.32 2 4.64 2 6 2 C6 1.34 6 0.68 6 0 C6.99 0.33 7.98 0.66 9 1 C9 2.98 9 4.96 9 7 C6.69 7.33 4.38 7.66 2 8 C1.67 8.99 1.34 9.98 1 11 C-0.4375 12.6875 -0.4375 12.6875 -2 14 C-2.66 14 -3.32 14 -4 14 C-4.33 12.68 -4.66 11.36 -5 10 C-5.66 10 -6.32 10 -7 10 C-7 8.02 -7 6.04 -7 4 C-4.69 3.34 -2.38 2.68 0 2 C0 1.34 0 0.68 0 0 Z " fill="#F59FCC" transform="translate(235,200)"/>
<path d="M0 0 C0.66 0.33 1.32 0.66 2 1 C1.67 1.99 1.34 2.98 1 4 C2.32 4 3.64 4 5 4 C4.67 4.66 4.34 5.32 4 6 C2.90300781 6.10828125 1.80601562 6.2165625 0.67578125 6.328125 C-5.25253375 6.93534497 -10.39124556 9.39795732 -15.8125 11.75 C-16.82892578 12.18054688 -17.84535156 12.61109375 -18.89257812 13.0546875 C-25.64414945 15.92916146 -32.33294378 18.9351787 -39 22 C-39.33 21.34 -39.66 20.68 -40 20 C-38.66207397 19.35768433 -38.66207397 19.35768433 -37.29711914 18.70239258 C-33.94667065 17.09300124 -30.59797219 15.47999616 -27.24975586 13.8659668 C-25.80816388 13.17164049 -24.36611674 12.47825829 -22.92358398 11.78588867 C-20.83452858 10.78299725 -18.7468996 9.77722404 -16.66015625 8.76953125 C-15.98651031 8.444617 -15.31286438 8.11970276 -14.61880493 7.78494263 C-10.16261261 5.61691103 -5.83767211 3.29533306 -1.59936523 0.72143555 C-1.07157471 0.48336182 -0.54378418 0.24528809 0 0 Z " fill="#E8E2E0" transform="translate(231,122)"/>
<path d="M0 0 C0 0.99 0 1.98 0 3 C-17.85649203 7.40774487 -17.85649203 7.40774487 -26 8 C-26 6.68 -26 5.36 -26 4 C-17.21066649 1.47286794 -9.16434446 -0.16077797 0 0 Z " fill="#5D3092" transform="translate(274,209)"/>
<path d="M0 0 C2.375 1.1875 2.375 1.1875 4 3 C4.5625 5.4375 4.5625 5.4375 4 8 C1.8125 10.375 1.8125 10.375 -1 12 C-3.8125 11.75 -3.8125 11.75 -6 11 C-6.33 9.35 -6.66 7.7 -7 6 C-6.01 6 -5.02 6 -4 6 C-4.33 7.32 -4.66 8.64 -5 10 C-3.35 9.67 -1.7 9.34 0 9 C0.33 7.02 0.66 5.04 1 3 C-3.56359173 2.54926349 -3.56359173 2.54926349 -7.66796875 4.1328125 C-10.02250831 7.43331077 -9.91653958 11.34526205 -10.375 15.28515625 C-11 18 -11 18 -14 20 C-13.58325104 7.12245704 -13.58325104 7.12245704 -9 2 C-5.51131349 -0.32579101 -4.10281481 -0.41865457 0 0 Z " fill="#212120" transform="translate(253,125)"/>
<path d="M0 0 C0.99 0.33 1.98 0.66 3 1 C4.74448199 6.23344596 4.67853621 11.87957435 3 17.125 C2.67 17.74375 2.34 18.3625 2 19 C1.34 19 0.68 19 0 19 C-3.02008666 13.96652223 -3.54506579 10.72319081 -3 5 C-1.5 2 -1.5 2 0 0 Z " fill="#0992D9" transform="translate(174,122)"/>
<path d="M0 0 C1.22589844 0.01353516 1.22589844 0.01353516 2.4765625 0.02734375 C3.41628906 0.04474609 3.41628906 0.04474609 4.375 0.0625 C0.625 3.0625 0.625 3.0625 -1.625 3.0625 C-1.295 3.68125 -0.965 4.3 -0.625 4.9375 C0.77887684 9.32461512 0.53467523 13.49401427 0.375 18.0625 C-0.285 16.7425 -0.945 15.4225 -1.625 14.0625 C-2.945 14.0625 -4.265 14.0625 -5.625 14.0625 C-5.955 13.0725 -6.285 12.0825 -6.625 11.0625 C-7.285 11.0625 -7.945 11.0625 -8.625 11.0625 C-9.285 11.7225 -9.945 12.3825 -10.625 13.0625 C-11.285 11.4125 -11.945 9.7625 -12.625 8.0625 C-10.645 7.7325 -8.665 7.4025 -6.625 7.0625 C-6.625 5.0825 -6.625 3.1025 -6.625 1.0625 C-4.21954362 -0.14022819 -2.67503047 -0.03821472 0 0 Z " fill="#F8F7D0" transform="translate(182.625,111.9375)"/>
<path d="M0 0 C2.24312483 0.18199796 4.44903989 0.51986035 6.67578125 0.84375 C8.97727971 1.12010105 8.97727971 1.12010105 11.05859375 0.47265625 C14.25821728 -0.30632654 16.94689024 1.00186796 20 2 C19.67 3.32 19.34 4.64 19 6 C16 6 16 6 14.3125 4.5 C13.879375 4.005 13.44625 3.51 13 3 C13.33 3.99 13.66 4.98 14 6 C9.05 6 4.1 6 -1 6 C-1 1 -1 1 0 0 Z " fill="#ADAB7F" transform="translate(181,98)"/>
<path d="M0 0 C0 1.32 0 2.64 0 4 C-0.66 4 -1.32 4 -2 4 C-2.33 4.66 -2.66 5.32 -3 6 C-4.32148827 6.37756808 -5.65835921 6.7018576 -7 7 C-8.2684375 7.556875 -8.2684375 7.556875 -9.5625 8.125 C-12 9 -12 9 -15 8 C-15 5.36 -15 2.72 -15 0 C-8.25 0.875 -8.25 0.875 -6 2 C-6 1.34 -6 0.68 -6 0 C-3.50907189 -1.24546405 -2.58919267 -0.7767578 0 0 Z " fill="#EE479B" transform="translate(260,198)"/>
<path d="M0 0 C0 2.64 0 5.28 0 8 C-1.36125 8.433125 -1.36125 8.433125 -2.75 8.875 C-5.88351118 9.88080213 -5.88351118 9.88080213 -8.25 11.125 C-10 12 -10 12 -12 12 C-12 10.35 -12 8.7 -12 7 C-11.34 7 -10.68 7 -10 7 C-8.9935725 5.33720673 -7.99414593 3.67016516 -7 2 C-4 0 -4 0 0 0 Z " fill="#181818" transform="translate(276,153)"/>
<path d="M0 0 C-3.74549355 3.8746485 -6.59770491 6.11324935 -11.9375 7.125 C-12.79214844 7.29257813 -13.64679688 7.46015625 -14.52734375 7.6328125 C-17 8 -17 8 -21 8 C-21 7.01 -21 6.02 -21 5 C-19.41800369 4.35089846 -17.83434276 3.70585306 -16.25 3.0625 C-15.36828125 2.70285156 -14.4865625 2.34320313 -13.578125 1.97265625 C-8.87153658 0.1969888 -5.05975034 -0.09730289 0 0 Z " fill="#0EA653" transform="translate(229,137)"/>
<path d="M0 0 C4.40345402 0.05699628 8.58713641 0.68693878 12.90234375 1.5234375 C13.62099609 1.64976562 14.33964844 1.77609375 15.08007812 1.90625 C16.890143 2.24809417 18.68066056 2.69030801 20.46484375 3.1484375 C20.79484375 3.8084375 21.12484375 4.4684375 21.46484375 5.1484375 C15.44399551 8.15886162 5.67350748 5.80703767 -0.53515625 4.1484375 C-2.89453125 2.57421875 -2.89453125 2.57421875 -4.53515625 1.1484375 C-3.53515625 0.1484375 -3.53515625 0.1484375 0 0 Z " fill="#53248B" transform="translate(120.53515625,206.8515625)"/>
<path d="M0 0 C0.33 0.66 0.66 1.32 1 2 C2.53359047 2.2439803 4.07026068 2.47375593 5.61328125 2.6484375 C10.80521931 3.41320743 15.89914965 4.78039819 21 6 C20.67 6.66 20.34 7.32 20 8 C15.4705188 7.58060359 11.59660667 6.91054723 7.3125 5.375 C1.15945727 3.38797996 -4.68027883 4.17784192 -11 5 C-11 4.01 -11 3.02 -11 2 C-8.70370006 0.85185003 -6.92301914 0.69230191 -4.375 0.4375 C-3.14910156 0.31181641 -3.14910156 0.31181641 -1.8984375 0.18359375 C-0.95871094 0.09271484 -0.95871094 0.09271484 0 0 Z " fill="#1C1C1A" transform="translate(238,145)"/>
<path d="M0 0 C1.9375 0.75 1.9375 0.75 4 2 C4.62890625 4.078125 4.62890625 4.078125 5 6 C3.54462432 6.83848804 2.08559627 7.67063934 0.625 8.5 C-0.18710938 8.9640625 -0.99921875 9.428125 -1.8359375 9.90625 C-4 11 -4 11 -6 11 C-6 10.34 -6 9.68 -6 9 C-6.66 9 -7.32 9 -8 9 C-6.4169423 4.7257442 -3.49431596 2.73468206 0 0 Z " fill="#57298E" transform="translate(229,115)"/>
<path d="M0 0 C0.33 0 0.66 0 1 0 C3.44038985 12.76666757 2.85168894 25.08496192 2 38 C1.67 38 1.34 38 1 38 C-0.68450795 25.03530491 -1.38911369 13.04774646 0 0 Z " fill="#71499E" transform="translate(291,146)"/>
<path d="M0 0 C1.41898766 2.64877696 2.31911019 5.08014819 3 8 C-9.15135135 10.61621622 -9.15135135 10.61621622 -14 9 C-14.66 8.01 -15.32 7.02 -16 6 C-10.72 5.34 -5.44 4.68 0 4 C0 2.68 0 1.36 0 0 Z " fill="#653A96" transform="translate(286,202)"/>
<path d="M0 0 C1.37478516 0.01740234 1.37478516 0.01740234 2.77734375 0.03515625 C3.69644531 0.04417969 4.61554688 0.05320312 5.5625 0.0625 C6.27277344 0.07410156 6.98304688 0.08570312 7.71484375 0.09765625 C7.71484375 1.08765625 7.71484375 2.07765625 7.71484375 3.09765625 C7.87984375 3.75765625 8.04484375 4.41765625 8.21484375 5.09765625 C8.71484375 7.09765625 8.71484375 7.09765625 8.71484375 10.09765625 C0.67912946 12.37444196 0.67912946 12.37444196 -3.28515625 11.09765625 C-2.95515625 10.43765625 -2.62515625 9.77765625 -2.28515625 9.09765625 C-1.62515625 9.42765625 -0.96515625 9.75765625 -0.28515625 10.09765625 C-0.61515625 8.44765625 -0.94515625 6.79765625 -1.28515625 5.09765625 C-0.29515625 5.42765625 0.69484375 5.75765625 1.71484375 6.09765625 C1.71484375 6.75765625 1.71484375 7.41765625 1.71484375 8.09765625 C2.70484375 8.09765625 3.69484375 8.09765625 4.71484375 8.09765625 C4.71484375 6.77765625 4.71484375 5.45765625 4.71484375 4.09765625 C3.76609375 3.97390625 2.81734375 3.85015625 1.83984375 3.72265625 C-1.28515625 3.09765625 -1.28515625 3.09765625 -3.28515625 1.09765625 C-2.28515625 0.09765625 -2.28515625 0.09765625 0 0 Z " fill="#FBF8B1" transform="translate(195.28515625,95.90234375)"/>
<path d="M0 0 C2.31 0 4.62 0 7 0 C5.7934375 1.11375 5.7934375 1.11375 4.5625 2.25 C2.23011409 4.75304829 1.36465606 5.7180955 1 9 C1.99 9 2.98 9 4 9 C4.33 8.01 4.66 7.02 5 6 C5.6875 7.625 5.6875 7.625 6 10 C5.54625 10.886875 5.0925 11.77375 4.625 12.6875 C2.6068937 16.80133207 2.29140632 20.47817774 2 25 C1.67 25 1.34 25 1 25 C0.24524649 16.64380043 -0.13605482 8.39004715 0 0 Z " fill="#F6F1B9" transform="translate(106,94)"/>
<path d="M0 0 C0 0.99 0 1.98 0 3 C-0.99 2.67 -1.98 2.34 -3 2 C-3.99 3.485 -3.99 3.485 -5 5 C-1.75791433 4.64950425 -0.38472296 4.43778819 1.8125 1.9375 C2.204375 1.298125 2.59625 0.65875 3 0 C3.66 0.33 4.32 0.66 5 1 C4.34 2.32 3.68 3.64 3 5 C3.66 5 4.32 5 5 5 C5.28875 4.360625 5.5775 3.72125 5.875 3.0625 C7 1 7 1 9 0 C8.34 2.31 7.68 4.62 7 7 C4.00519083 7.8723412 1.36424089 8.10829766 -1.75 8.0625 C-2.54921875 8.05347656 -3.3484375 8.04445312 -4.171875 8.03515625 C-4.77515625 8.02355469 -5.3784375 8.01195312 -6 8 C-6.6875 5.6875 -6.6875 5.6875 -7 3 C-4.87164172 -0.24854684 -4.06968429 0 0 0 Z " fill="#2A2928" transform="translate(252,139)"/>
<path d="M0 0 C-0.33 1.32 -0.66 2.64 -1 4 C-1 3.34 -1 2.68 -1 2 C-8.71018295 1.71807706 -8.71018295 1.71807706 -16 4 C-16.66 3.67 -17.32 3.34 -18 3 C-17.875 1.125 -17.875 1.125 -17 -1 C-11.30987769 -4.4440214 -5.84382931 -1.93407874 0 0 Z " fill="#EEEEE8" transform="translate(253,152)"/>
<path d="M0 0 C0.33 0 0.66 0 1 0 C1.93089636 4.74384783 2.18305754 9.36742608 2.1875 14.1875 C2.19974609 14.89841797 2.21199219 15.60933594 2.22460938 16.34179688 C2.23525454 20.11373295 2.14423638 21.78364543 0 25 C-1.14550205 20.43617437 -1.14891298 16.04600119 -1.125 11.375 C-1.12886719 10.611875 -1.13273437 9.84875 -1.13671875 9.0625 C-1.13097136 5.78648638 -1.04287441 3.12862324 0 0 Z " fill="#55268E" transform="translate(290,167)"/>
<path d="M0 0 C1.32 0.33 2.64 0.66 4 1 C4.375 3.1875 4.375 3.1875 4 6 C2.17130326 8.08832653 0.30947441 9.38336791 -2 11 C-2.66 11 -3.32 11 -4 11 C-3.56179109 6.44262737 -3.14958831 3.42346555 0 0 Z " fill="#EDEDEB" transform="translate(170,158)"/>
<path d="M0 0 C2.125 0.375 2.125 0.375 4 1 C4.375 3.1875 4.375 3.1875 4 6 C2.17130326 8.08832653 0.30947441 9.38336791 -2 11 C-2.66 11 -3.32 11 -4 11 C-3.71758359 9.53984709 -3.42373386 8.08190207 -3.125 6.625 C-2.96257812 5.81289062 -2.80015625 5.00078125 -2.6328125 4.1640625 C-2 2 -2 2 0 0 Z " fill="#F6F6F4" transform="translate(241,158)"/>
<path d="M0 0 C2.375 0.5625 2.375 0.5625 5 2 C6.3125 5.625 6.3125 5.625 7 9 C6.01 9.66 5.02 10.32 4 11 C3.67 10.34 3.34 9.68 3 9 C2.01 9 1.02 9 0 9 C-0.144375 8.38125 -0.28875 7.7625 -0.4375 7.125 C-0.93152225 4.96741678 -0.93152225 4.96741678 -2 3 C-1.34 2.01 -0.68 1.02 0 0 Z " fill="#FDFBC9" transform="translate(233,112)"/>
<path d="M0 0 C0.66 0.33 1.32 0.66 2 1 C1.67 1.99 1.34 2.98 1 4 C2.32 4 3.64 4 5 4 C4.67 4.66 4.34 5.32 4 6 C2.04798445 6.26468007 0.09386469 6.52076644 -1.8671875 6.70703125 C-4.24327219 6.9587286 -4.24327219 6.9587286 -7.3125 8.1875 C-8.199375 8.455625 -9.08625 8.72375 -10 9 C-10.99 8.34 -11.98 7.68 -13 7 C-10.88002166 5.80266012 -8.75486324 4.61701287 -6.625 3.4375 C-6.02171875 3.09525391 -5.4184375 2.75300781 -4.796875 2.40039062 C-3.23021759 1.53872905 -1.61709138 0.76281817 0 0 Z " fill="#F6F4DB" transform="translate(231,122)"/>
<path d="M0 0 C5.83261544 0.0298191 10.89097462 0.64018265 16.5 2.1875 C16.5 2.5175 16.5 2.8475 16.5 3.1875 C12.87506666 3.24537784 9.25025143 3.2810542 5.625 3.3125 C4.59246094 3.32925781 3.55992187 3.34601563 2.49609375 3.36328125 C1.50996094 3.36972656 0.52382812 3.37617188 -0.4921875 3.3828125 C-1.85899658 3.39852295 -1.85899658 3.39852295 -3.25341797 3.41455078 C-5.5 3.1875 -5.5 3.1875 -7.5 1.1875 C-5.6206684 -0.6918316 -2.50683616 0.01339122 0 0 Z " fill="#FCFBEC" transform="translate(135.5,139.8125)"/>
<path d="M0 0 C3.5219721 -0.08004482 6.61981469 -0.04005702 10 1 C10 1.66 10 2.32 10 3 C8.37373596 4.38232443 6.7074998 5.71937515 5 7 C4.67 6.67 4.34 6.34 4 6 C2.33382885 5.95936168 0.66611905 5.957279 -1 6 C-0.67 4.02 -0.34 2.04 0 0 Z " fill="#F282BA" transform="translate(186,203)"/>
<path d="M0 0 C0.99 0.33 1.98 0.66 3 1 C3 2.98 3 4.96 3 7 C0.01758453 7.77321882 -2.97580475 8.41196203 -6 9 C-6.125 6.625 -6.125 6.625 -6 4 C-5.34 3.34 -4.68 2.68 -4 2 C-2.68 2 -1.36 2 0 2 C0 1.34 0 0.68 0 0 Z " fill="#EF429B" transform="translate(241,200)"/>
<path d="M0 0 C0.66 0 1.32 0 2 0 C2 0.99 2 1.98 2 3 C3.65 3 5.3 3 7 3 C7 4.98 7 6.96 7 9 C6.34 9 5.68 9 5 9 C4.67 7.68 4.34 6.36 4 5 C3.67 6.32 3.34 7.64 3 9 C1.68 9 0.36 9 -1 9 C-1.09765625 2.84765625 -1.09765625 2.84765625 -1 1 C-0.67 0.67 -0.34 0.34 0 0 Z " fill="#F17AB6" transform="translate(158,197)"/>
<path d="M0 0 C0.97582031 0.10183594 1.95164063 0.20367187 2.95703125 0.30859375 C3.69308594 0.39238281 4.42914063 0.47617188 5.1875 0.5625 C3.1875 3.5625 3.1875 3.5625 1.09375 4.109375 C0.2996875 4.17640625 -0.494375 4.2434375 -1.3125 4.3125 C-2.50359375 4.42851562 -2.50359375 4.42851562 -3.71875 4.546875 C-5.8125 4.5625 -5.8125 4.5625 -7.8125 3.5625 C-7.8125 2.9025 -7.8125 2.2425 -7.8125 1.5625 C-8.8025 1.2325 -9.7925 0.9025 -10.8125 0.5625 C-7.01982808 -0.3735342 -3.87575435 -0.42026252 0 0 Z " fill="#5F3394" transform="translate(221.8125,218.4375)"/>
<path d="M0 0 C-3.12621626 3.39417765 -5.56541027 5.6062718 -10 7 C-10.66 5.35 -11.32 3.7 -12 2 C-7.52828892 -0.66173278 -5.06604612 -1.3268216 0 0 Z " fill="#53248B" transform="translate(205,141)"/>
<path d="M0 0 C0.99 0 1.98 0 3 0 C3 3.96 3 7.92 3 12 C7.29 12 11.58 12 16 12 C14 14 14 14 11.8359375 14.1953125 C10.61777344 14.16050781 10.61777344 14.16050781 9.375 14.125 C8.55773437 14.10695313 7.74046875 14.08890625 6.8984375 14.0703125 C6.27195313 14.04710938 5.64546875 14.02390625 5 14 C5 14.66 5 15.32 5 16 C4.01 16 3.02 16 2 16 C2 11.05 2 6.1 2 1 C1.34 0.67 0.68 0.34 0 0 Z " fill="#DB78AF" transform="translate(194,109)"/>
<path d="M0 0 C0.33 0 0.66 0 1 0 C1 2.31 1 4.62 1 7 C-0.875 8.0625 -0.875 8.0625 -3 9 C-3.66 8.67 -4.32 8.34 -5 8 C-5.66 8.185625 -6.32 8.37125 -7 8.5625 C-7.66 8.706875 -8.32 8.85125 -9 9 C-9.66 8.34 -10.32 7.68 -11 7 C-9.35 5.02 -7.7 3.04 -6 1 C-5.34 1.33 -4.68 1.66 -4 2 C-4.66 3.32 -5.32 4.64 -6 6 C-4.68 5.67 -3.36 5.34 -2 5 C-1.67 5.66 -1.34 6.32 -1 7 C-1.020625 6.030625 -1.04125 5.06125 -1.0625 4.0625 C-1 1 -1 1 0 0 Z " fill="#2C2B29" transform="translate(275,138)"/>
<path d="M0 0 C0.33 0 0.66 0 1 0 C1.33965474 2.18652739 1.67142477 4.37428025 2 6.5625 C2.185625 7.78066406 2.37125 8.99882812 2.5625 10.25390625 C3.19557801 15.67463672 3.28929747 20.68164792 2 26 C1.67 26 1.34 26 1 26 C-0.15664737 20.51730931 -0.11416255 15.19660726 -0.0625 9.625 C-0.05798828 8.69816406 -0.05347656 7.77132812 -0.04882812 6.81640625 C-0.03711574 4.54420291 -0.02071372 2.27213612 0 0 Z " fill="#613693" transform="translate(292,135)"/>
<path d="M0 0 C0.33 1.32 0.66 2.64 1 4 C0.01 4 -0.98 4 -2 4 C-2 6.64 -2 9.28 -2 12 C0.31 12 2.62 12 5 12 C4.67 12.66 4.34 13.32 4 14 C1.69 14 -0.62 14 -3 14 C-3.12375 12.865625 -3.2475 11.73125 -3.375 10.5625 C-3.58125 9.386875 -3.7875 8.21125 -4 7 C-4.66 6.67 -5.32 6.34 -6 6 C-6 5.34 -6 4.68 -6 4 C-5.01 4 -4.02 4 -3 4 C-2.67 3.01 -2.34 2.02 -2 1 C-1.67 1.33 -1.34 1.66 -1 2 C-0.67 1.34 -0.34 0.68 0 0 Z " fill="#F8EFF6" transform="translate(247,194)"/>
<path d="M0 0 C9.41002278 -0.3690205 9.41002278 -0.3690205 14 2 C11.45394698 4.00047023 9.0335364 5.82572785 6 7 C5.01 6.67 4.02 6.34 3 6 C3.66 4.68 4.32 3.36 5 2 C3.35 1.67 1.7 1.34 0 1 C0 0.67 0 0.34 0 0 Z " fill="#F21C1F" transform="translate(197,126)"/>
<path d="M0 0 C1.98 0.66 3.96 1.32 6 2 C6.33 3.65 6.66 5.3 7 7 C4.36 7 1.72 7 -1 7 C-1.04254356 5.00045254 -1.04080783 2.99958364 -1 1 C-0.67 0.67 -0.34 0.34 0 0 Z " fill="#FBFBF1" transform="translate(270,145)"/>
<path d="M0 0 C2.64 0 5.28 0 8 0 C7.67 1.65 7.34 3.3 7 5 C4.92446352 5.5534764 3.15634036 6 1 6 C0.67 4.02 0.34 2.04 0 0 Z " fill="#A4A37A" transform="translate(204,98)"/>
<path d="M0 0 C0.66 0 1.32 0 2 0 C2 0.66 2 1.32 2 2 C2.99 2.33 3.98 2.66 5 3 C3.93106782 4.03590338 2.84421512 5.05333942 1.75 6.0625 C0.84507812 6.91521484 0.84507812 6.91521484 -0.078125 7.78515625 C-2 9 -2 9 -4.234375 8.68359375 C-4.81703125 8.45800781 -5.3996875 8.23242188 -6 8 C-5.01 6.68 -4.02 5.36 -3 4 C-1 5 -1 5 0 6 C0 5.01 0 4.02 0 3 C-0.66 2.67 -1.32 2.34 -2 2 C-1.34 2 -0.68 2 0 2 C0 1.34 0 0.68 0 0 Z " fill="#C6C6C0" transform="translate(252,136)"/>
<path d="M0 0 C2.64 0.33 5.28 0.66 8 1 C8 2.65 8 4.3 8 6 C7.01 6.495 7.01 6.495 6 7 C5.67 6.34 5.34 5.68 5 5 C4.01 5.495 4.01 5.495 3 6 C2.67 5.01 2.34 4.02 2 3 C1.67 3.99 1.34 4.98 1 6 C0.34 6 -0.32 6 -1 6 C-0.67 4.02 -0.34 2.04 0 0 Z " fill="#EB2C8D" transform="translate(202,205)"/>
<path d="M0 0 C3.22290201 0.0289309 5.44294723 0.35779815 8.1875 2.1875 C5.06098943 4.04024701 2.81576895 4.64103362 -0.8125 4.1875 C-3.125 2.6875 -3.125 2.6875 -4.8125 1.1875 C-3.8125 0.1875 -3.8125 0.1875 0 0 Z " fill="#5B2D91" transform="translate(120.8125,206.8125)"/>
<path d="M0 0 C0.33 0.99 0.66 1.98 1 3 C4.51190809 4.22969878 4.51190809 4.22969878 8 5 C5.75 7.0625 5.75 7.0625 3 9 C0.6875 8.75 0.6875 8.75 -1 8 C-0.67 5.36 -0.34 2.72 0 0 Z " fill="#F7F7E9" transform="translate(244,132)"/>
<path d="M0 0 C0 0.66 0 1.32 0 2 C0.66 2.33 1.32 2.66 2 3 C-1.04300316 4.52150158 -3.654085 4.23899393 -7 4 C-7.66 3.01 -8.32 2.02 -9 1 C-6.04335481 -0.4783226 -3.25770263 -0.06032783 0 0 Z " fill="#55268C" transform="translate(214,220)"/>
<path d="M0 0 C1.32 0 2.64 0 4 0 C3.938125 0.94875 3.87625 1.8975 3.8125 2.875 C3.874375 3.90625 3.93625 4.9375 4 6 C4.99 6.66 5.98 7.32 7 8 C3.98968256 8.93423645 3.13349732 9.04449911 0 8 C0 5.36 0 2.72 0 0 Z " fill="#F591C7" transform="translate(245,198)"/>
<path d="M0 0 C1.46015291 0.28241641 2.91809793 0.57626614 4.375 0.875 C5.18710938 1.03742188 5.99921875 1.19984375 6.8359375 1.3671875 C9 2 9 2 11 4 C9.02 4.66 7.04 5.32 5 6 C4.566875 5.505 4.13375 5.01 3.6875 4.5 C2.00259517 2.66781808 2.00259517 2.66781808 -1 3 C-0.67 2.01 -0.34 1.02 0 0 Z " fill="#623A93" transform="translate(178,140)"/>
<path d="M0 0 C0.66 0.33 1.32 0.66 2 1 C2.66 0.67 3.32 0.34 4 0 C4.99 0 5.98 0 7 0 C7.33 1.32 7.66 2.64 8 4 C7.01 4.495 7.01 4.495 6 5 C5.67 4.01 5.34 3.02 5 2 C4.67 2.66 4.34 3.32 4 4 C3.34 4 2.68 4 2 4 C2 4.66 2 5.32 2 6 C0.68 5.67 -0.64 5.34 -2 5 C-1.125 1.125 -1.125 1.125 0 0 Z " fill="#737058" transform="translate(215,98)"/>
<path d="M0 0 C0.99 0 1.98 0 3 0 C3.28571429 7.42857143 3.28571429 7.42857143 1 11 C-0.17571451 7.32589215 -0.07366746 3.83070817 0 0 Z M-1 7 C-0.67 7 -0.34 7 0 7 C0 9.64 0 12.28 0 15 C-0.33 15 -0.66 15 -1 15 C-1 12.36 -1 9.72 -1 7 Z " fill="#50208C" transform="translate(297,95)"/>
<path d="M0 0 C1.28132812 0.00902344 2.56265625 0.01804688 3.8828125 0.02734375 C4.87023437 0.03894531 5.85765625 0.05054688 6.875 0.0625 C6.875 0.3925 6.875 0.7225 6.875 1.0625 C5.7303125 1.248125 5.7303125 1.248125 4.5625 1.4375 C1.67232864 1.94352792 1.67232864 1.94352792 -1.125 4.0625 C-3.625 4.375 -3.625 4.375 -6.125 4.0625 C-7.9375 2.5625 -7.9375 2.5625 -9.125 1.0625 C-6.12186252 -0.43906874 -3.33432478 -0.03031204 0 0 Z " fill="#53248A" transform="translate(230.125,216.9375)"/>
<path d="M0 0 C1.22589844 0.15275391 1.22589844 0.15275391 2.4765625 0.30859375 C3.41628906 0.43427734 3.41628906 0.43427734 4.375 0.5625 C1.49988551 3.43761449 -1.72982694 3.39864951 -5.625 3.5625 C-8.625 3.125 -8.625 3.125 -10.625 2.5625 C-4.375 -0.5625 -4.375 -0.5625 0 0 Z " fill="#673E99" transform="translate(177.625,217.4375)"/>
<path d="M0 0 C0.99 0 1.98 0 3 0 C3 2.31 3 4.62 3 7 C1.35 7.33 -0.3 7.66 -2 8 C-2 2 -2 2 0 0 Z " fill="#EC3493" transform="translate(220,205)"/>
<path d="M0 0 C0 0.99 0 1.98 0 3 C-4.455 3.495 -4.455 3.495 -9 4 C-9.33 3.01 -9.66 2.02 -10 1 C-6.78548731 -0.60725635 -3.56387464 -0.05748185 0 0 Z " fill="#52228B" transform="translate(274,209)"/>
<path d="M0 0 C0 1.98 0 3.96 0 6 C-1.98 6 -3.96 6 -6 6 C-5.625 3.5625 -5.625 3.5625 -5 1 C-3 0 -3 0 0 0 Z " fill="#EF4A9F" transform="translate(217,205)"/>
<path d="M0 0 C0.66 0.66 1.32 1.32 2 2 C-2.455 3.485 -2.455 3.485 -7 5 C-7.33 3.68 -7.66 2.36 -8 1 C-4.9553071 -0.84856355 -3.35670253 -1.34268101 0 0 Z " fill="#09A046" transform="translate(216,141)"/>
<path d="M0 0 C0.33 0.99 0.66 1.98 1 3 C-1.95664519 4.4783226 -4.74229737 4.06032783 -8 4 C-8 3.01 -8 2.02 -8 1 C-5.29120665 -0.35439668 -2.99066732 -0.06501451 0 0 Z " fill="#4D4C49" transform="translate(235,146)"/>
<path d="M0 0 C2.31 0 4.62 0 7 0 C7.33 0.99 7.66 1.98 8 3 C7.67 3.66 7.34 4.32 7 5 C4 5 4 5 2.3125 3.5 C1.879375 3.005 1.44625 2.51 1 2 C1.33 2.99 1.66 3.98 2 5 C1.01 4.67 0.02 4.34 -1 4 C-0.67 2.68 -0.34 1.36 0 0 Z " fill="#888767" transform="translate(193,99)"/>
<path d="M0 0 C2.31 0 4.62 0 7 0 C7 0.66 7 1.32 7 2 C6.360625 2.12375 5.72125 2.2475 5.0625 2.375 C4.381875 2.58125 3.70125 2.7875 3 3 C2.67 3.66 2.34 4.32 2 5 C2.66 5.33 3.32 5.66 4 6 C2.02 6.99 2.02 6.99 0 8 C-0.66 6.35 -1.32 4.7 -2 3 C-1.34 3 -0.68 3 0 3 C0 2.01 0 1.02 0 0 Z " fill="#F9F7B0" transform="translate(178,96)"/>
<path d="M0 0 C2.31 0 4.62 0 7 0 C6.195625 0.680625 5.39125 1.36125 4.5625 2.0625 C1.57711289 5.48477302 1.26218749 7.5428126 1 12 C0.67 12 0.34 12 0 12 C0 8.04 0 4.08 0 0 Z " fill="#F2EEA8" transform="translate(106,94)"/>
<path d="M0 0 C1.32 0 2.64 0 4 0 C3.67 1.98 3.34 3.96 3 6 C1.35 5.67 -0.3 5.34 -2 5 C-1.125 1.125 -1.125 1.125 0 0 Z " fill="#ED3C9B" transform="translate(152,200)"/>
<path d="M0 0 C0.33 1.32 0.66 2.64 1 4 C-0.6875 5.5625 -0.6875 5.5625 -3 7 C-5.75 6.6875 -5.75 6.6875 -8 6 C-8.33 4.35 -8.66 2.7 -9 1 C-8.01 1 -7.02 1 -6 1 C-6.33 2.32 -6.66 3.64 -7 5 C-4.00847418 4.22520264 -4.00847418 4.22520264 -1 3 C-0.67 2.01 -0.34 1.02 0 0 Z " fill="#181717" transform="translate(255,130)"/>
<path d="M0 0 C2.475 0.495 2.475 0.495 5 1 C5 2.32 5 3.64 5 5 C3.35 5.33 1.7 5.66 0 6 C0 4.02 0 2.04 0 0 Z " fill="#EE71AC" transform="translate(210,122)"/>
<path d="M0 0 C1.23556641 0.01740234 1.23556641 0.01740234 2.49609375 0.03515625 C3.32238281 0.04417969 4.14867187 0.05320312 5 0.0625 C5.63808594 0.07410156 6.27617187 0.08570312 6.93359375 0.09765625 C0.56995739 5.09765625 0.56995739 5.09765625 -4.06640625 5.09765625 C-2.94676868 0.13926128 -2.94676868 0.13926128 0 0 Z " fill="#F8F3C4" transform="translate(180.06640625,111.90234375)"/>
<path d="M0 0 C0.33 0.66 0.66 1.32 1 2 C-2.21451269 3.60725635 -5.43612536 3.05748185 -9 3 C-9.33 2.34 -9.66 1.68 -10 1 C-6.78548731 -0.60725635 -3.56387464 -0.05748185 0 0 Z " fill="#56298C" transform="translate(172,216)"/>
<path d="M0 0 C0.66 0 1.32 0 2 0 C2 0.66 2 1.32 2 2 C2.66 2.33 3.32 2.66 4 3 C3.34 3.66 2.68 4.32 2 5 C2 5.99 2 6.98 2 8 C2.66 8.66 3.32 9.32 4 10 C0.625 10.625 0.625 10.625 -3 11 C-3.66 10.34 -4.32 9.68 -5 9 C-3.35 9 -1.7 9 0 9 C0 6.03 0 3.06 0 0 Z " fill="#FCE2F2" transform="translate(217,202)"/>
<path d="M0 0 C0.66 0.33 1.32 0.66 2 1 C1.67 1.99 1.34 2.98 1 4 C2.32 4 3.64 4 5 4 C4.67 4.66 4.34 5.32 4 6 C2.948125 5.649375 1.89625 5.29875 0.8125 4.9375 C-2.7954681 4.05029473 -4.52632489 3.94737118 -8 5 C-5.45378681 2.99940392 -3.01962385 1.20784954 0 0 Z " fill="#DDD3C9" transform="translate(231,122)"/>
<path d="M0 0 C3.3 0.33 6.6 0.66 10 1 C10 1.99 10 2.98 10 4 C9.071875 3.979375 8.14375 3.95875 7.1875 3.9375 C3.97713989 3.84230396 3.97713989 3.84230396 1 5 C0.67 3.35 0.34 1.7 0 0 Z " fill="#EBEAD0" transform="translate(243,122)"/>
<path d="M0 0 C0.66 0 1.32 0 2 0 C1.67 1.32 1.34 2.64 1 4 C1.66 4.33 2.32 4.66 3 5 C2.38125 5.12375 1.7625 5.2475 1.125 5.375 C-1.19120832 5.87197356 -1.19120832 5.87197356 -3 8 C-3.66 7.67 -4.32 7.34 -5 7 C-4.34 5.35 -3.68 3.7 -3 2 C-2.34 2.33 -1.68 2.66 -1 3 C-0.67 2.01 -0.34 1.02 0 0 Z " fill="#FBE9F4" transform="translate(200,207)"/>
<path d="M0 0 C1.32 0 2.64 0 4 0 C4.33 0.99 4.66 1.98 5 3 C3.1875 5.6875 3.1875 5.6875 1 8 C0.34 8 -0.32 8 -1 8 C-0.67 5.36 -0.34 2.72 0 0 Z " fill="#EB2F92" transform="translate(173,201)"/>
<path d="M0 0 C0.66 0 1.32 0 2 0 C2.33 1.32 2.66 2.64 3 4 C-1.455 4.495 -1.455 4.495 -6 5 C-5.67 4.01 -5.34 3.02 -5 2 C-3 1.375 -3 1.375 -1 1 C-0.67 0.67 -0.34 0.34 0 0 Z " fill="#FEFDF1" transform="translate(193,147)"/>
<path d="M0 0 C0.66 0 1.32 0 2 0 C2 0.66 2 1.32 2 2 C2.66 2 3.32 2 4 2 C4.33 1.34 4.66 0.68 5 0 C5.66 0.66 6.32 1.32 7 2 C6.34 3.65 5.68 5.3 5 7 C4.34 7 3.68 7 3 7 C2.01 4.69 1.02 2.38 0 0 Z " fill="#1594D6" transform="translate(171,134)"/>
<path d="M0 0 C1.4731994 2.74997221 2.22404875 4.89619499 3 8 C0.03 7.67 -2.94 7.34 -6 7 C-5.34 6.01 -4.68 5.02 -4 4 C-2.68 4 -1.36 4 0 4 C0 2.68 0 1.36 0 0 Z " fill="#6A439C" transform="translate(286,202)"/>
<path d="M0 0 C0.33 0 0.66 0 1 0 C1 2.31 1 4.62 1 7 C0.401875 6.835 -0.19625 6.67 -0.8125 6.5 C-3.11344336 5.8885876 -3.11344336 5.8885876 -6 6 C-4 4 -2 2 0 0 Z " fill="#D5D5D2" transform="translate(273,138)"/>
<path d="M0 0 C2.25 1.9375 2.25 1.9375 2.5625 4.625 C2.4078125 5.7696875 2.4078125 5.7696875 2.25 6.9375 C1.26 6.9375 0.27 6.9375 -0.75 6.9375 C-0.75 5.2875 -0.75 3.6375 -0.75 1.9375 C-3.72 1.4425 -3.72 1.4425 -6.75 0.9375 C-3.98973864 -1.00490614 -3.23342649 -1.24927842 0 0 Z " fill="#3D3E39" transform="translate(254.75,126.0625)"/>
<path d="M0 0 C0.99 0.33 1.98 0.66 3 1 C2.67 1.66 2.34 2.32 2 3 C2.763125 2.484375 3.52625 1.96875 4.3125 1.4375 C5.199375 0.963125 6.08625 0.48875 7 0 C7.99 0.33 8.98 0.66 10 1 C3.25 5 3.25 5 1 5 C1 4.34 1 3.68 1 3 C0.34 3 -0.32 3 -1 3 C-0.67 2.01 -0.34 1.02 0 0 Z " fill="#4E208C" transform="translate(222,121)"/>
<path d="M0 0 C0.99 0.33 1.98 0.66 3 1 C3 1.66 3 2.32 3 3 C3.99 3.33 4.98 3.66 6 4 C4.25 5.5625 4.25 5.5625 2 7 C-0.25 6.6875 -0.25 6.6875 -2 6 C-1.67 5.34 -1.34 4.68 -1 4 C-0.34 4.33 0.32 4.66 1 5 C0.67 3.35 0.34 1.7 0 0 Z " fill="#F1EFB4" transform="translate(194,101)"/>
<path d="M0 0 C0.66 0.33 1.32 0.66 2 1 C2 1.66 2 2.32 2 3 C2.33 2.34 2.66 1.68 3 1 C3.66 1 4.32 1 5 1 C4.67 2.65 4.34 4.3 4 6 C2.35 6 0.7 6 -1 6 C-0.67 4.02 -0.34 2.04 0 0 Z " fill="#EE2B8C" transform="translate(186,203)"/>
<path d="M0 0 C1.65 0 3.3 0 5 0 C5 1.98 5 3.96 5 6 C4.34 6 3.68 6 3 6 C2.67 4.68 2.34 3.36 2 2 C1.34 3.32 0.68 4.64 0 6 C0 4.02 0 2.04 0 0 Z " fill="#EA2790" transform="translate(160,200)"/>
<path d="M0 0 C0.99 0.33 1.98 0.66 3 1 C3 2.98 3 4.96 3 7 C1.35 7 -0.3 7 -2 7 C-2 5.35 -2 3.7 -2 2 C-1.34 2 -0.68 2 0 2 C0 1.34 0 0.68 0 0 Z " fill="#EC3798" transform="translate(241,200)"/>
<path d="M0 0 C-2.52788007 2.79872437 -4.20411134 4.45773019 -8 5 C-7.67 4.34 -7.34 3.68 -7 3 C-7.66 2.34 -8.32 1.68 -9 1 C-6.04335481 -0.4783226 -3.25770263 -0.06032783 0 0 Z " fill="#10A048" transform="translate(229,137)"/>
<path d="M0 0 C0.66 0 1.32 0 2 0 C2 3.3 2 6.6 2 10 C1.34 8.68 0.68 7.36 0 6 C-0.99 6 -1.98 6 -3 6 C-1.125 1.125 -1.125 1.125 0 0 Z " fill="#DFD7C7" transform="translate(181,120)"/>
<path d="M0 0 C0.66 0.33 1.32 0.66 2 1 C2.72886734 3.7696959 3 6.12862585 3 9 C2.01 9 1.02 9 0 9 C-0.144375 8.38125 -0.28875 7.7625 -0.4375 7.125 C-0.93152225 4.96741678 -0.93152225 4.96741678 -2 3 C-1.34 2.01 -0.68 1.02 0 0 Z " fill="#EEE8C6" transform="translate(233,112)"/>
<path d="M0 0 C0 0.99 0 1.98 0 3 C-2.97 2.67 -5.94 2.34 -9 2 C-4.13793103 -1.24137931 -4.13793103 -1.24137931 0 0 Z " fill="#663B98" transform="translate(146,212)"/>
<path d="M0 0 C2.6875 -0.3125 2.6875 -0.3125 5 0 C4.67 1.65 4.34 3.3 4 5 C3.01 4.34 2.02 3.68 1 3 C0.01 4.485 0.01 4.485 -1 6 C-1.66 5.67 -2.32 5.34 -3 5 C-1.8125 2.5 -1.8125 2.5 0 0 Z " fill="#F0F0AC" transform="translate(214,96)"/>
<path d="M0 0 C-0.99 1.485 -0.99 1.485 -2 3 C-5.625 3.1875 -5.625 3.1875 -9 3 C-5.83583464 -0.30799106 -4.50236011 -1.35070803 0 0 Z " fill="#50248B" transform="translate(216,135)"/>
<path d="M0 0 C0.66 0.33 1.32 0.66 2 1 C1.67 2.32 1.34 3.64 1 5 C-0.65 5 -2.3 5 -4 5 C-4 4.34 -4 3.68 -4 3 C-3.34 3 -2.68 3 -2 3 C-2 2.34 -2 1.68 -2 1 C-1.34 0.67 -0.68 0.34 0 0 Z " fill="#F7F7E7" transform="translate(252,130)"/>
<path d="M0 0 C1.65 0 3.3 0 5 0 C4.34 1.65 3.68 3.3 3 5 C2.01 5 1.02 5 0 5 C0 3.35 0 1.7 0 0 Z " fill="#53258C" transform="translate(230,127)"/>
<path d="M0 0 C-0.66 1.65 -1.32 3.3 -2 5 C-2.66 5 -3.32 5 -4 5 C-4 4.01 -4 3.02 -4 2 C-4.66 2 -5.32 2 -6 2 C-6.33 2.66 -6.66 3.32 -7 4 C-7 3.01 -7 2.02 -7 1 C-3.375 -1.125 -3.375 -1.125 0 0 Z " fill="#9E9C74" transform="translate(194,99)"/>
<path d="M0 0 C3.63 0.33 7.26 0.66 11 1 C10.01 2.485 10.01 2.485 9 4 C7.35 3.67 5.7 3.34 4 3 C4 2.34 4 1.68 4 1 C2.68 0.67 1.36 0.34 0 0 Z " fill="#6B429D" transform="translate(216,218)"/>
<path d="M0 0 C0.99 0.33 1.98 0.66 3 1 C2.25 2.9375 2.25 2.9375 1 5 C-1.125 5.75 -1.125 5.75 -3 6 C-1.125 1.125 -1.125 1.125 0 0 Z " fill="#EBEBE6" transform="translate(261,140)"/>
<path d="M0 0 C0.33 0 0.66 0 1 0 C1.38909985 1.45463481 1.76088029 2.91391207 2.125 4.375 C2.33382812 5.18710938 2.54265625 5.99921875 2.7578125 6.8359375 C2.83773437 7.55007812 2.91765625 8.26421875 3 9 C2.34 9.66 1.68 10.32 1 11 C0.34 10.67 -0.32 10.34 -1 10 C-0.67 6.7 -0.34 3.4 0 0 Z " fill="#CBDFDF" transform="translate(178,128)"/>
<path d="M0 0 C1.4370809 -0.05422947 2.87475462 -0.09289723 4.3125 -0.125 C5.11300781 -0.14820312 5.91351563 -0.17140625 6.73828125 -0.1953125 C9 0 9 0 12 2 C7.48281619 3.36884358 4.41225737 2.47075246 0 1 C0 0.67 0 0.34 0 0 Z " fill="#EB1619" transform="translate(197,126)"/>
<path d="M0 0 C-0.33 0.66 -0.66 1.32 -1 2 C-3.64 2 -6.28 2 -9 2 C-8.67 1.34 -8.34 0.68 -8 0 C-4.71585695 -0.95067299 -3.30306592 -1.10102197 0 0 Z " fill="#FDFDF8" transform="translate(228,150)"/>
<path d="M0 0 C-0.99 0 -1.98 0 -3 0 C-3.33 0.99 -3.66 1.98 -4 3 C-5.65 2.67 -7.3 2.34 -9 2 C-5.945634 -1.054366 -3.9532319 -1.22686507 0 0 Z " fill="#DCDBD4" transform="translate(226,135)"/>
<path d="M0 0 C1.98 0 3.96 0 6 0 C6 0.66 6 1.32 6 2 C4 3.625 4 3.625 2 5 C1.34 3.35 0.68 1.7 0 0 Z " fill="#E5F3CF" transform="translate(170,120)"/>
<path d="M0 0 C0.33 0 0.66 0 1 0 C1 2.31 1 4.62 1 7 C-0.32 6.67 -1.64 6.34 -3 6 C-1.125 1.125 -1.125 1.125 0 0 Z " fill="#F0EBB2" transform="translate(295,99)"/>
</svg>
